<svg width="219" height="79" viewBox="0 0 219 79" fill="none" xmlns="http://www.w3.org/2000/svg">
<path d="M36.3991 24.9055H29.8651C29.8651 23.8165 29.6875 22.8518 29.3324 22.0114C28.9773 21.1591 28.4801 20.437 27.8409 19.8452C27.2017 19.2533 26.4441 18.8094 25.5682 18.5135C24.6922 18.2057 23.7216 18.0518 22.6562 18.0518C20.6203 18.0518 18.7263 18.5668 16.9744 19.5966C15.2225 20.6264 13.737 22.1238 12.5178 24.0888C11.2985 26.0419 10.4522 28.4152 9.97869 31.2088C9.54072 33.9313 9.58215 36.21 10.103 38.0447C10.6357 39.8795 11.5589 41.2644 12.8729 42.1996C14.1868 43.1229 15.7848 43.5845 17.6669 43.5845C18.8151 43.5845 19.916 43.4425 20.9695 43.1584C22.023 42.8625 22.9936 42.4304 23.8814 41.8622C24.781 41.2822 25.5682 40.5779 26.2429 39.7493C26.9295 38.9207 27.4621 37.9796 27.8409 36.9261H34.4638C33.9193 38.6544 33.1203 40.282 32.0668 41.8089C31.0133 43.3241 29.7467 44.6617 28.267 45.8217C26.7874 46.9699 25.1302 47.8696 23.2955 48.5206C21.4607 49.1716 19.4839 49.4972 17.3651 49.4972C14.1098 49.4972 11.3222 48.7396 9.00213 47.2244C6.69389 45.6974 5.0367 43.5135 4.03054 40.6726C3.02438 37.8198 2.84683 34.4048 3.49787 30.4276C4.14891 26.5568 5.40365 23.2602 7.26207 20.5376C9.13234 17.8151 11.411 15.7377 14.098 14.3054C16.7969 12.8613 19.7029 12.1392 22.8161 12.1392C24.8757 12.1392 26.746 12.4233 28.4268 12.9915C30.1196 13.5597 31.5696 14.3942 32.777 15.495C33.9844 16.584 34.9018 17.9216 35.5291 19.5078C36.1683 21.0821 36.4583 22.8814 36.3991 24.9055ZM47.2789 33.0199L44.6511 49H38.2058L44.2427 12.6364H50.546L48.2733 26.3615H48.6106C49.4747 24.8108 50.6525 23.5916 52.144 22.7038C53.6473 21.8161 55.4525 21.3722 57.5595 21.3722C59.4297 21.3722 61.0041 21.7687 62.2825 22.5618C63.5609 23.3549 64.4605 24.5149 64.9814 26.0419C65.514 27.5689 65.6028 29.4332 65.2477 31.6349L62.3358 49H55.8904L58.6248 32.6293C58.9208 30.7945 58.6781 29.3681 57.8968 28.3501C57.1274 27.3203 55.9082 26.8054 54.2392 26.8054C53.091 26.8054 52.0315 27.054 51.0609 27.5511C50.0903 28.0365 49.2735 28.7408 48.6106 29.6641C47.9596 30.5874 47.5157 31.706 47.2789 33.0199ZM76.6291 49.5504C74.9009 49.5504 73.3975 49.2427 72.1191 48.6271C70.8407 47.9998 69.8997 47.0765 69.296 45.8572C68.7041 44.638 68.5562 43.1347 68.8521 41.3473C69.1125 39.8085 69.6097 38.536 70.3436 37.5298C71.0893 36.5237 72.0008 35.7188 73.0779 35.1151C74.167 34.4995 75.3507 34.0379 76.6291 33.7301C77.9193 33.4223 79.2333 33.1974 80.5708 33.0554C82.2044 32.8897 83.5242 32.7358 84.5304 32.5938C85.5484 32.4517 86.3118 32.2386 86.8208 31.9545C87.3298 31.6586 87.6376 31.2088 87.7441 30.6051V30.4986C87.9572 29.161 87.7441 28.1252 87.1049 27.3913C86.4657 26.6574 85.4004 26.2905 83.9089 26.2905C82.3464 26.2905 81.0325 26.6338 79.9672 27.3203C78.9018 28.0069 78.1265 28.8177 77.6412 29.7528L71.8173 28.9006C72.5512 27.2434 73.5574 25.8584 74.8358 24.7457C76.1142 23.6212 77.5879 22.7808 79.2569 22.2244C80.9378 21.6562 82.7311 21.3722 84.6369 21.3722C85.939 21.3722 87.2115 21.526 88.4544 21.8338C89.7091 22.1416 90.8159 22.6506 91.7747 23.3608C92.7453 24.0592 93.4556 25.0121 93.9054 26.2195C94.367 27.4268 94.444 28.9361 94.1362 30.7472L91.1 49H84.921L85.5602 45.2536H85.3471C84.8381 46.0111 84.1752 46.7214 83.3585 47.3842C82.5417 48.0353 81.5711 48.562 80.4466 48.9645C79.322 49.3551 78.0495 49.5504 76.6291 49.5504ZM79.0616 44.8274C80.3519 44.8274 81.5119 44.5729 82.5417 44.0639C83.5716 43.5431 84.4179 42.8565 85.0808 42.0043C85.7437 41.152 86.158 40.2228 86.3237 39.2166L86.8564 36.0028C86.6196 36.1686 86.2527 36.3224 85.7555 36.4645C85.2583 36.6065 84.702 36.7308 84.0865 36.8374C83.4828 36.9439 82.885 37.0386 82.2931 37.1214C81.7013 37.2043 81.1923 37.2753 80.7662 37.3345C79.7837 37.4647 78.8841 37.6778 78.0673 37.9737C77.2624 38.2696 76.5936 38.6839 76.0609 39.2166C75.5401 39.7375 75.2145 40.4122 75.0843 41.2408C74.8949 42.4126 75.1731 43.3063 75.9189 43.9219C76.6646 44.5256 77.7122 44.8274 79.0616 44.8274ZM115.727 21.7273L114.893 26.6989H99.2321L100.049 21.7273H115.727ZM104.985 15.1932H111.412L107.151 40.7969C107.021 41.661 107.045 42.3239 107.222 42.7855C107.412 43.2353 107.713 43.5431 108.128 43.7088C108.554 43.8745 109.033 43.9574 109.566 43.9574C109.956 43.9574 110.323 43.9278 110.667 43.8686C111.01 43.7976 111.282 43.7443 111.483 43.7088L111.768 48.7337C111.377 48.852 110.85 48.9822 110.187 49.1243C109.536 49.2663 108.755 49.3492 107.844 49.3729C106.21 49.4084 104.79 49.1598 103.582 48.6271C102.387 48.0826 101.511 47.2481 100.954 46.1236C100.41 44.9872 100.286 43.5668 100.581 41.8622L104.985 15.1932ZM121.511 49H114.48L133.319 12.6364H141.451L148.233 49H141.202L136.319 20.0938H136.035L121.511 49ZM124.103 34.7422H143.279L142.392 40.0334H123.216L124.103 34.7422ZM151.052 59.2273L157.338 21.7273H163.659L162.931 26.2372H163.303C163.73 25.5743 164.304 24.87 165.026 24.1243C165.76 23.3667 166.689 22.7216 167.813 22.1889C168.938 21.6444 170.305 21.3722 171.915 21.3722C174.01 21.3722 175.815 21.9107 177.33 22.9879C178.846 24.0533 179.929 25.6335 180.58 27.7287C181.243 29.812 181.325 32.3688 180.828 35.3991C180.331 38.3939 179.414 40.9389 178.076 43.0341C176.739 45.1293 175.135 46.7273 173.264 47.8281C171.394 48.929 169.388 49.4794 167.245 49.4794C165.683 49.4794 164.422 49.219 163.463 48.6982C162.516 48.1773 161.8 47.55 161.315 46.8161C160.829 46.0703 160.468 45.366 160.232 44.7031H159.948L157.533 59.2273H151.052ZM161.368 35.3636C161.084 37.1274 161.078 38.6721 161.35 39.9979C161.634 41.3236 162.197 42.3594 163.037 43.1051C163.878 43.839 164.978 44.206 166.34 44.206C167.76 44.206 169.003 43.8272 170.068 43.0696C171.146 42.3002 172.039 41.2526 172.749 39.9268C173.472 38.5893 173.981 37.0682 174.276 35.3636C174.549 33.6709 174.549 32.1676 174.276 30.8537C174.004 29.5398 173.454 28.5099 172.625 27.7642C171.797 27.0185 170.672 26.6456 169.252 26.6456C167.867 26.6456 166.63 27.0066 165.541 27.7287C164.463 28.4508 163.57 29.4628 162.86 30.7649C162.149 32.067 161.652 33.5999 161.368 35.3636ZM182.351 59.2273L188.636 21.7273H194.957L194.229 26.2372H194.602C195.028 25.5743 195.603 24.87 196.325 24.1243C197.058 23.3667 197.988 22.7216 199.112 22.1889C200.237 21.6444 201.604 21.3722 203.214 21.3722C205.309 21.3722 207.114 21.9107 208.629 22.9879C210.144 24.0533 211.228 25.6335 211.879 27.7287C212.541 29.812 212.624 32.3688 212.127 35.3991C211.63 38.3939 210.713 40.9389 209.375 43.0341C208.037 45.1293 206.433 46.7273 204.563 47.8281C202.693 48.929 200.687 49.4794 198.544 49.4794C196.982 49.4794 195.721 49.219 194.762 48.6982C193.815 48.1773 193.099 47.55 192.614 46.8161C192.128 46.0703 191.767 45.366 191.531 44.7031H191.246L188.832 59.2273H182.351ZM192.667 35.3636C192.383 37.1274 192.377 38.6721 192.649 39.9979C192.933 41.3236 193.496 42.3594 194.336 43.1051C195.176 43.839 196.277 44.206 197.638 44.206C199.059 44.206 200.302 43.8272 201.367 43.0696C202.444 42.3002 203.338 41.2526 204.048 39.9268C204.77 38.5893 205.279 37.0682 205.575 35.3636C205.848 33.6709 205.848 32.1676 205.575 30.8537C205.303 29.5398 204.753 28.5099 203.924 27.7642C203.095 27.0185 201.971 26.6456 200.55 26.6456C199.165 26.6456 197.929 27.0066 196.839 27.7287C195.762 28.4508 194.869 29.4628 194.158 30.7649C193.448 32.067 192.951 33.5999 192.667 35.3636Z" fill="#F7650A"/>
<path d="M150.001 71.9585C150.09 71.3121 150.262 70.7741 150.518 70.3445C150.774 69.9148 151.088 69.5934 151.461 69.3803C151.837 69.1637 152.246 69.0554 152.686 69.0554C153.031 69.0554 153.341 69.1282 153.618 69.2738C153.899 69.4194 154.208 69.6626 154.545 70.0036C154.737 70.1953 154.902 70.3391 155.04 70.435C155.179 70.5309 155.342 70.5788 155.531 70.5788C155.804 70.5788 156.04 70.4759 156.239 70.2699C156.441 70.0639 156.575 69.7479 156.638 69.3217H158.178C158.089 69.9645 157.915 70.4989 157.656 70.9251C157.397 71.3477 157.079 71.6637 156.702 71.8732C156.33 72.0827 155.926 72.1875 155.493 72.1875C155.135 72.1875 154.817 72.1112 154.54 71.9585C154.266 71.8058 153.966 71.5678 153.64 71.2447C153.437 71.0423 153.267 70.902 153.128 70.8239C152.993 70.7422 152.832 70.7013 152.643 70.7013C152.381 70.7013 152.148 70.799 151.946 70.9943C151.743 71.1861 151.61 71.5075 151.546 71.9585H150.001ZM166.864 68.9808L165.091 69.1726C165.073 68.9915 165.018 68.8228 164.926 68.6665C164.833 68.5103 164.695 68.386 164.51 68.2937C164.329 68.1978 164.095 68.1499 163.807 68.1499C163.388 68.1499 163.02 68.244 162.704 68.4322C162.388 68.6204 162.209 68.8619 162.166 69.1566C162.127 69.3768 162.18 69.5561 162.326 69.6946C162.472 69.8331 162.742 69.9503 163.136 70.0462L164.489 70.3445C165.234 70.5114 165.771 70.7812 166.097 71.1541C166.428 71.527 166.543 72.0153 166.444 72.619C166.358 73.1232 166.138 73.5671 165.783 73.9506C165.428 74.3306 164.973 74.6271 164.419 74.8402C163.869 75.0533 163.258 75.1598 162.587 75.1598C161.568 75.1598 160.783 74.9485 160.233 74.5259C159.686 74.0998 159.414 73.5138 159.418 72.7681L161.314 72.587C161.335 72.9563 161.465 73.2351 161.703 73.4233C161.941 73.608 162.271 73.7021 162.694 73.7056C163.169 73.7092 163.571 73.6097 163.897 73.4073C164.228 73.2013 164.414 72.951 164.457 72.6562C164.492 72.4361 164.437 72.2567 164.292 72.1183C164.15 71.9798 163.896 71.8697 163.53 71.788L162.188 71.495C161.428 71.3281 160.886 71.0458 160.563 70.6481C160.243 70.2468 160.135 69.7408 160.238 69.13C160.323 68.6328 160.531 68.2049 160.861 67.8462C161.195 67.484 161.623 67.2053 162.145 67.0099C162.667 66.8111 163.251 66.7116 163.897 66.7116C164.87 66.7116 165.604 66.9158 166.097 67.3242C166.591 67.7326 166.847 68.2848 166.864 68.9808ZM173.419 71.5589L174.213 66.8182H176.141L174.777 75H172.908L173.153 73.5458H173.067C172.812 74.0039 172.446 74.3786 171.97 74.6697C171.498 74.9609 170.954 75.1065 170.34 75.1065C169.804 75.1065 169.351 74.9876 168.982 74.7496C168.612 74.5082 168.35 74.1584 168.193 73.7003C168.041 73.2386 168.018 72.6811 168.124 72.0277L168.998 66.8182H170.926L170.106 71.7294C170.024 72.2479 170.099 72.6598 170.329 72.9652C170.564 73.2706 170.912 73.4233 171.373 73.4233C171.658 73.4233 171.943 73.354 172.231 73.2156C172.522 73.0771 172.776 72.8711 172.993 72.5977C173.209 72.3207 173.351 71.9744 173.419 71.5589ZM176.765 75L178.129 66.8182H179.977L179.743 68.2085H179.844C180.093 67.7397 180.436 67.3739 180.872 67.1112C181.309 66.8448 181.801 66.7116 182.348 66.7116C182.898 66.7116 183.342 66.8466 183.68 67.1165C184.02 67.3828 184.23 67.7468 184.308 68.2085H184.393C184.649 67.7504 185.015 67.3864 185.491 67.1165C185.97 66.8466 186.508 66.7116 187.105 66.7116C187.85 66.7116 188.422 66.9496 188.82 67.4254C189.218 67.9013 189.34 68.5955 189.187 69.5082L188.271 75H186.343L187.216 69.8065C187.295 69.2987 187.216 68.9276 186.982 68.6932C186.751 68.4553 186.441 68.3363 186.05 68.3363C185.585 68.3363 185.198 68.4801 184.889 68.7678C184.583 69.0554 184.395 69.4318 184.324 69.897L183.466 75H181.575L182.46 69.7266C182.524 69.304 182.449 68.9666 182.236 68.7145C182.026 68.4624 181.718 68.3363 181.309 68.3363C181.032 68.3363 180.768 68.4073 180.515 68.5494C180.263 68.6914 180.048 68.8903 179.871 69.146C179.697 69.3981 179.583 69.6911 179.53 70.0249L178.699 75H176.765ZM190.222 75L191.586 66.8182H193.514L192.15 75H190.222ZM192.832 65.6463C192.523 65.6463 192.267 65.5433 192.065 65.3374C191.863 65.1314 191.774 64.8846 191.799 64.5969C191.824 64.3093 191.953 64.0625 192.188 63.8565C192.426 63.6506 192.697 63.5476 193.003 63.5476C193.312 63.5476 193.565 63.6506 193.764 63.8565C193.967 64.0625 194.055 64.3093 194.031 64.5969C194.009 64.8846 193.88 65.1314 193.642 65.3374C193.407 65.5433 193.138 65.6463 192.832 65.6463ZM199.582 66.8182L199.332 68.3097H194.634L194.879 66.8182H199.582ZM196.36 64.858H198.288L197.01 72.5391C196.971 72.7983 196.978 72.9972 197.031 73.1357C197.088 73.2706 197.178 73.3629 197.303 73.4126C197.43 73.4624 197.574 73.4872 197.734 73.4872C197.851 73.4872 197.961 73.4783 198.064 73.4606C198.167 73.4393 198.249 73.4233 198.309 73.4126L198.395 74.9201C198.277 74.9556 198.119 74.9947 197.92 75.0373C197.725 75.0799 197.491 75.1048 197.217 75.1119C196.727 75.1225 196.301 75.0479 195.939 74.8881C195.58 74.7248 195.317 74.4744 195.151 74.1371C194.987 73.7962 194.95 73.37 195.039 72.8587L196.36 64.858ZM201.195 66.8182H203.123L201.685 75.4688C201.586 76.0582 201.39 76.5447 201.099 76.9283C200.812 77.3118 200.439 77.5977 199.981 77.7859C199.526 77.9741 198.997 78.0682 198.393 78.0682C198.333 78.0682 198.272 78.0664 198.212 78.0629C198.148 78.0629 198.082 78.0611 198.015 78.0575L198.276 76.4862C198.326 76.4897 198.372 76.4915 198.415 76.4915C198.457 76.495 198.503 76.4968 198.553 76.4968C198.922 76.4968 199.203 76.4063 199.395 76.2251C199.583 76.0476 199.707 75.7866 199.767 75.4421L201.195 66.8182ZM202.415 65.657C202.109 65.657 201.854 65.554 201.648 65.348C201.445 65.142 201.357 64.897 201.381 64.6129C201.406 64.3217 201.536 64.0749 201.77 63.8725C202.008 63.6665 202.282 63.5636 202.591 63.5636C202.896 63.5636 203.148 63.6665 203.347 63.8725C203.549 64.0749 203.638 64.3217 203.613 64.6129C203.592 64.897 203.462 65.142 203.225 65.348C202.99 65.554 202.72 65.657 202.415 65.657ZM203.743 75L205.106 66.8182H206.976L206.747 68.1818H206.832C207.056 67.7095 207.372 67.3455 207.78 67.0898C208.192 66.8306 208.632 66.701 209.101 66.701C209.211 66.701 209.33 66.7063 209.458 66.717C209.586 66.7241 209.696 66.7365 209.788 66.7543L209.49 68.5281C209.408 68.4996 209.281 68.4748 209.107 68.4535C208.936 68.4286 208.767 68.4162 208.6 68.4162C208.249 68.4162 207.922 68.4925 207.62 68.6452C207.322 68.7944 207.07 69.0021 206.864 69.2685C206.658 69.5348 206.525 69.842 206.464 70.19L205.671 75H203.743Z" fill="white"/>
</svg>
