<svg width="62" height="62" viewBox="0 0 62 62" fill="none" xmlns="http://www.w3.org/2000/svg">
<g clip-path="url(#clip0_4_312)">
<path d="M30.9 61.8C47.9656 61.8 61.8 47.9656 61.8 30.9C61.8 13.8344 47.9656 0 30.9 0C13.8344 0 0 13.8344 0 30.9C0 47.9656 13.8344 61.8 30.9 61.8Z" fill="#9F82BB"/>
<path fill-rule="evenodd" clip-rule="evenodd" d="M23.255 38.68L39.162 38.801V51.719L23.255 51.598V38.68Z" fill="#F9DCA4"/>
<path fill-rule="evenodd" clip-rule="evenodd" d="M53.478 51.993C50.5906 55.0916 47.0955 57.5616 43.2108 59.249C39.3261 60.9363 35.1353 61.8047 30.9 61.8C29.6173 61.7999 28.3359 61.7208 27.063 61.563C23.1591 61.0036 19.382 59.7706 15.9 57.919C12.9613 56.2834 10.308 54.181 8.044 51.694L9.327 48.594L23.252 42.382C23.252 46.917 24.562 52.402 30.691 52.495C38.261 52.609 39.161 47.02 39.161 42.345L51.951 48.627L53.478 51.993Z" fill="#434955"/>
<path opacity="0.11" fill-rule="evenodd" clip-rule="evenodd" d="M39.166 38.778V42.358C39.163 42.7533 39.1299 43.1478 39.067 43.538C38.9883 44.0196 38.8558 44.4909 38.672 44.943C33.298 49.107 24.733 45.691 23.366 38.578L39.166 38.778Z" fill="black"/>
<path fill-rule="evenodd" clip-rule="evenodd" d="M31.129 8.43201C52.41 8.43201 44.117 43.698 31.129 43.698C18.863 43.698 9.848 8.43201 31.129 8.43201Z" fill="#FFE8BE"/>
<path fill-rule="evenodd" clip-rule="evenodd" d="M18.365 24.046C15.295 25.385 17.905 31.732 19.837 31.704C19.0357 29.2206 18.5413 26.6495 18.365 24.046ZM44.14 24.045C47.21 25.384 44.6 31.732 42.669 31.703C43.4697 29.2199 43.9637 26.6481 44.14 24.045Z" fill="#F9DCA4"/>
<path fill-rule="evenodd" clip-rule="evenodd" d="M23.252 42.382C18.614 43.4838 14.1645 45.2658 10.048 47.67C8.403 48.615 8.443 50.069 8.811 50.596C10.127 52.478 14.362 50.074 15.9 49.436C18.5282 48.3048 21.212 47.3072 23.941 46.447C23.3848 45.168 23.1483 43.7728 23.252 42.382Z" fill="#677079"/>
<path fill-rule="evenodd" clip-rule="evenodd" d="M31.209 60.625C28.182 58.435 23.296 52.455 23.252 45.412C23.252 53.092 39.162 53.062 39.162 45.382C38.51 53.418 34.179 58.561 31.209 60.625Z" fill="white"/>
<path fill-rule="evenodd" clip-rule="evenodd" d="M39.277 42.157C43.5514 43.4053 47.6487 45.1952 51.469 47.483C53.114 48.428 53.074 49.881 52.706 50.408C51.39 52.29 47.155 49.886 45.617 49.249C42.637 48.014 39.463 46.379 38.587 46.222C39.1436 44.9431 39.3804 43.5479 39.277 42.157ZM23.255 40.89C23.143 48.385 29.014 55.1 33.31 61.07C33.183 60.891 33.44 61.25 33.31 61.07C32.737 61.037 32.53 61.51 31.931 61.415C26.607 60.572 20.548 57.45 18.95 54.945C18.647 54.471 22.29 51.033 22.101 50.511C21.999 50.227 18.929 50.607 17.183 51.158C17.055 51.198 17.041 50.92 17.012 50.789C16.203 47.077 17.605 42.914 23.255 40.89Z" fill="#677079"/>
<path fill-rule="evenodd" clip-rule="evenodd" d="M31.53 60.085C31.5774 60.0902 31.6232 60.105 31.6647 60.1284C31.7062 60.1518 31.7426 60.1834 31.7716 60.2212C31.8005 60.2591 31.8216 60.3024 31.8334 60.3486C31.8451 60.3947 31.8475 60.4428 31.8402 60.4899C31.8329 60.537 31.8161 60.5822 31.7909 60.6226C31.7657 60.6631 31.7325 60.698 31.6935 60.7253C31.6544 60.7526 31.6102 60.7717 31.5635 60.7814C31.5169 60.7912 31.4687 60.7914 31.422 60.782C28.9371 60.3719 26.522 59.6155 24.247 58.535C22.4892 57.8068 20.9504 56.6349 19.781 55.134C19.511 54.709 20.368 53.608 21.271 52.454C21.908 51.7396 22.4594 50.9533 22.914 50.111C22.3777 50.0519 21.8371 50.0422 21.299 50.082C20.2582 50.1047 19.2222 50.23 18.206 50.456C18.096 50.483 17.987 50.514 17.882 50.546L17.858 50.553C17.763 50.5776 17.6623 50.5674 17.5742 50.5241C17.4861 50.4808 17.4165 50.4073 17.378 50.317C17.2583 50.0599 17.1871 49.7829 17.168 49.5C17.1242 49.0665 17.1226 48.6298 17.163 48.196C17.3133 46.5931 17.9228 45.0676 18.9184 43.8024C19.9139 42.5372 21.2534 41.586 22.776 41.063C22.863 41.0281 22.9603 41.0292 23.0464 41.0661C23.1326 41.1029 23.2006 41.1725 23.2355 41.2595C23.2704 41.3465 23.2693 41.4438 23.2324 41.53C23.1956 41.6161 23.126 41.6841 23.039 41.719C21.6394 42.1956 20.4071 43.066 19.49 44.2257C18.573 45.3855 18.0101 46.7852 17.869 48.257C17.832 48.6448 17.8327 49.0353 17.871 49.423C17.8836 49.5485 17.904 49.673 17.932 49.796L18.037 49.769C19.1035 49.532 20.1907 49.4007 21.283 49.377C22.0212 49.2915 22.7688 49.408 23.446 49.714C23.5024 49.7503 23.5472 49.802 23.575 49.863C23.5813 49.8763 23.5867 49.89 23.591 49.904L23.599 49.931C23.728 50.451 22.753 51.701 21.826 52.888C21.3393 53.5074 20.856 54.1294 20.376 54.754C21.4769 56.1427 22.9158 57.2256 24.555 57.899C26.7665 58.9498 29.1143 59.6856 31.53 60.085Z" fill="#434955"/>
<path fill-rule="evenodd" clip-rule="evenodd" d="M39.162 40.89C39.278 48.611 32.775 55.6 28.452 61.703C38.409 61.853 41.51 57.148 43.468 54.944C43.841 54.524 40.128 51.033 40.317 50.511C40.419 50.227 43.489 50.607 45.234 51.158C45.363 51.198 45.377 50.921 45.406 50.789C46.215 47.077 44.813 42.914 39.162 40.89Z" fill="#677079"/>
<path fill-rule="evenodd" clip-rule="evenodd" d="M29.313 61.2C29.2196 61.1919 29.1333 61.1471 29.073 61.0753C29.0127 61.0036 28.9834 60.9108 28.9915 60.8175C28.9996 60.7241 29.0444 60.6378 29.1162 60.5775C29.1879 60.5172 29.2806 60.4879 29.374 60.496C31.7738 60.6449 34.1719 60.1785 36.341 59.141C38.5976 58.2025 40.5696 56.6901 42.061 54.754C42.063 54.75 41.355 53.843 40.611 52.889C39.684 51.701 38.709 50.451 38.838 49.931L38.845 49.905C38.8497 49.8906 38.8554 49.8766 38.862 49.863C38.8899 49.8018 38.9347 49.7498 38.991 49.713C39.668 49.4076 40.4152 49.2914 41.153 49.377C42.2456 49.4006 43.3332 49.5319 44.4 49.769L44.504 49.796C44.5321 49.673 44.5524 49.5485 44.565 49.423C44.6033 49.0353 44.604 48.6448 44.567 48.257C44.4257 46.7854 43.8628 45.3858 42.9457 44.2263C42.0286 43.0668 40.7964 42.1965 39.397 41.72C39.3539 41.7027 39.3147 41.677 39.2815 41.6445C39.2484 41.612 39.2219 41.5733 39.2037 41.5306C39.1855 41.4879 39.1759 41.442 39.1755 41.3956C39.175 41.3491 39.1837 41.3031 39.201 41.26C39.2183 41.2169 39.244 41.1777 39.2765 41.1445C39.309 41.1114 39.3477 41.0849 39.3904 41.0667C39.4331 41.0485 39.479 41.0389 39.5254 41.0384C39.5719 41.038 39.6179 41.0467 39.661 41.064C41.1833 41.5871 42.5224 42.5381 43.5178 43.8031C44.5132 45.0681 45.1226 46.5934 45.273 48.196C45.3134 48.6298 45.3118 49.0665 45.268 49.5C45.2489 49.7829 45.1777 50.0599 45.058 50.317C45.0195 50.4073 44.9499 50.4807 44.8618 50.524C44.7737 50.5673 44.673 50.5776 44.578 50.553L44.554 50.547C44.4473 50.5133 44.3396 50.483 44.231 50.456C43.2144 50.2303 42.1781 50.1053 41.137 50.083C40.5993 50.0429 40.059 50.0523 39.523 50.111C39.9777 50.9534 40.5295 51.7398 41.167 52.454C42.069 53.61 42.927 54.71 42.656 55.134C41.0896 57.185 39.0124 58.7891 36.632 59.786C34.3526 60.8731 31.8332 61.3605 29.313 61.2Z" fill="#434955"/>
<path d="M40.111 55.436C40.5744 55.436 40.95 55.0604 40.95 54.597C40.95 54.1336 40.5744 53.758 40.111 53.758C39.6476 53.758 39.272 54.1336 39.272 54.597C39.272 55.0604 39.6476 55.436 40.111 55.436Z" fill="#E6E6E6"/>
<path d="M22.427 55.436C22.8904 55.436 23.266 55.0604 23.266 54.597C23.266 54.1336 22.8904 53.758 22.427 53.758C21.9636 53.758 21.588 54.1336 21.588 54.597C21.588 55.0604 21.9636 55.436 22.427 55.436Z" fill="#E6E6E6"/>
<path d="M19.315 48.911C19.7784 48.911 20.154 48.5354 20.154 48.072C20.154 47.6086 19.7784 47.233 19.315 47.233C18.8516 47.233 18.476 47.6086 18.476 48.072C18.476 48.5354 18.8516 48.911 19.315 48.911Z" fill="#E6E6E6"/>
<path d="M43.202 48.911C43.6654 48.911 44.041 48.5354 44.041 48.072C44.041 47.6086 43.6654 47.233 43.202 47.233C42.7386 47.233 42.363 47.6086 42.363 48.072C42.363 48.5354 42.7386 48.911 43.202 48.911Z" fill="#E6E6E6"/>
<path fill-rule="evenodd" clip-rule="evenodd" d="M17.034 25.782C17.1257 25.3385 17.3256 24.9245 17.616 24.577C17.5914 27.1262 18.3679 29.6188 19.836 31.703C18.261 16.778 21.363 14.157 21.363 14.157C21.363 14.157 30.681 21.188 41.032 14.138C41.032 14.138 44.311 16.777 42.736 31.702C44.311 29.377 44.666 27.395 44.78 24.507C45.1662 24.8846 45.4178 25.3786 45.496 25.913C45.496 25.913 47.27 16.843 43.342 11.832C43.698 11.269 45.517 9.69299 46.079 9.73099C46.641 9.76899 43.679 8.53099 40.079 9.13099C40.9339 8.23045 41.9359 7.48208 43.042 6.91799C41.2147 6.56381 39.3488 6.45018 37.492 6.57999C38.5339 5.79573 39.6672 5.14094 40.867 4.62999C37.9745 3.75285 34.8926 3.71402 31.979 4.51799C33.0191 3.29039 34.2622 2.2503 35.654 1.44299C35.654 1.44299 26.167 1.96799 21.217 9.01799C20.8939 7.89795 20.9274 6.7051 21.313 5.60499C21.313 5.60499 15.05 11.484 17.034 25.782ZM31.259 46.344C24.842 43.399 27.439 39.223 27.439 39.223C27.4976 39.6867 27.6866 40.1242 27.984 40.4848C28.2814 40.8454 28.6749 41.1142 29.119 41.26C29.5849 40.2496 30.3267 39.3913 31.259 38.784C32.1328 39.4432 32.8485 40.2891 33.354 41.26C33.798 41.1141 34.1915 40.8453 34.4889 40.4847C34.7863 40.1241 34.9753 39.6866 35.034 39.223C35.034 39.223 37.674 43.399 31.259 46.344Z" fill="#464449"/>
<path fill-rule="evenodd" clip-rule="evenodd" d="M20.887 24.242L20.95 24.227C28.062 22.46 29.713 24.253 30.097 25.17C30.846 24.9473 31.644 24.9508 32.391 25.18C32.767 24.266 34.403 22.453 41.543 24.227L41.605 24.242L42.709 24.535C42.8011 24.5607 42.8792 24.6218 42.9262 24.705C42.9733 24.7881 42.9855 24.8866 42.96 24.9787C42.9346 25.0709 42.8737 25.1491 42.7907 25.1964C42.7076 25.2437 42.6092 25.2562 42.517 25.231L41.874 25.057C41.894 26.511 41.558 30.59 37.204 30.902C32.564 31.233 32.269 27.02 32.272 25.901C31.6085 25.6708 30.8876 25.6659 30.221 25.887C30.226 26.986 29.947 31.234 25.288 30.902C20.934 30.59 20.598 26.511 20.618 25.057L19.976 25.231C19.9303 25.2437 19.8826 25.2472 19.8355 25.2414C19.7884 25.2356 19.7429 25.2207 19.7017 25.1973C19.6604 25.1739 19.6241 25.1427 19.5949 25.1053C19.5657 25.0679 19.5442 25.0252 19.5315 24.9795C19.5188 24.9338 19.5153 24.886 19.5211 24.839C19.5268 24.7919 19.5418 24.7464 19.5652 24.7052C19.5885 24.6639 19.6198 24.6276 19.6572 24.5984C19.6945 24.5692 19.7373 24.5477 19.783 24.535L20.887 24.242Z" fill="#677079"/>
<path opacity="0.5" fill-rule="evenodd" clip-rule="evenodd" d="M36.128 23.883C36.9361 23.7865 37.7525 23.7801 38.562 23.864L35.661 30.377C34.9265 30.1737 34.2674 29.76 33.765 29.187L36.128 23.883ZM24.552 23.563C25.4385 23.4572 26.334 23.4501 27.222 23.542L24.039 30.684C23.2341 30.4611 22.5118 30.0078 21.961 29.38L24.551 23.564L24.552 23.563ZM28.142 23.717L24.896 30.862C25.0227 30.8787 25.1533 30.892 25.288 30.902C25.37 30.907 25.451 30.912 25.53 30.915L28.712 23.913C28.5265 23.8354 28.3361 23.7703 28.142 23.718V23.717ZM39.402 24.024L36.442 30.539C36.5573 30.5543 36.6763 30.5663 36.799 30.575C36.874 30.58 36.948 30.585 37.02 30.587L39.922 24.202C39.7527 24.1315 39.579 24.072 39.402 24.024Z" fill="#E6E6E6"/>
<path fill-rule="evenodd" clip-rule="evenodd" d="M20.887 24.242C20.9075 24.2351 20.9286 24.23 20.95 24.227C28.062 22.46 29.713 24.253 30.097 25.17C30.846 24.9473 31.644 24.9508 32.391 25.18C32.767 24.266 34.403 22.453 41.543 24.227C41.5641 24.23 41.5849 24.2351 41.605 24.242C41.96 24.331 42.327 24.428 42.709 24.535C42.8011 24.5607 42.8792 24.6218 42.9262 24.705C42.9733 24.7881 42.9855 24.8866 42.96 24.9787C42.9346 25.0709 42.8737 25.1491 42.7907 25.1964C42.7076 25.2437 42.6092 25.2562 42.517 25.231C42.297 25.17 42.084 25.112 41.874 25.057C41.894 26.511 41.558 30.59 37.204 30.902C32.564 31.233 32.269 27.02 32.272 25.901C31.6085 25.6708 30.8876 25.6659 30.221 25.887C30.226 26.986 29.947 31.234 25.288 30.902C20.934 30.59 20.598 26.511 20.618 25.057C20.408 25.112 20.195 25.17 19.976 25.231C19.9303 25.2437 19.8826 25.2472 19.8355 25.2414C19.7884 25.2356 19.7429 25.2207 19.7017 25.1973C19.6604 25.1739 19.6241 25.1427 19.5949 25.1053C19.5657 25.0679 19.5442 25.0252 19.5315 24.9795C19.5188 24.9338 19.5153 24.886 19.5211 24.839C19.5268 24.7919 19.5418 24.7464 19.5652 24.7052C19.5885 24.6639 19.6198 24.6276 19.6572 24.5984C19.6945 24.5692 19.7373 24.5477 19.783 24.535C20.165 24.428 20.532 24.33 20.887 24.242ZM37.153 30.18C41.11 29.897 41.193 25.913 41.147 24.872C33.334 22.957 33.015 25.446 33.002 25.647L33 25.67C33 25.684 32.648 30.501 37.153 30.18ZM20.95 24.227L21.041 24.225C21.0104 24.2215 20.9794 24.2221 20.949 24.227H20.95ZM21.346 24.871C21.299 25.913 21.383 29.897 25.339 30.18C29.844 30.501 29.492 25.684 29.491 25.67V25.647C29.477 25.446 29.158 22.956 21.346 24.871Z" fill="#464449"/>
</g>
<defs>
<clipPath id="clip0_4_312">
<rect width="61.8" height="61.8" fill="white"/>
</clipPath>
</defs>
</svg>
