<svg width="62" height="67" viewBox="0 0 62 67" fill="none" xmlns="http://www.w3.org/2000/svg">
<g clip-path="url(#clip0_4_241)">
<path d="M30.9 63.8C47.9656 63.8 61.8 49.9656 61.8 32.9C61.8 15.8344 47.9656 2 30.9 2C13.8344 2 0 15.8344 0 32.9C0 49.9656 13.8344 63.8 30.9 63.8Z" fill="#3DBC93"/>
<path fill-rule="evenodd" clip-rule="evenodd" d="M23.255 40.68L39.162 40.801V53.719L23.255 53.598V40.68Z" fill="#F9DCA4"/>
<path opacity="0.11" fill-rule="evenodd" clip-rule="evenodd" d="M39.165 40.778V44.358C39.1624 44.7533 39.1296 45.1477 39.067 45.538C38.9883 46.0196 38.8558 46.4909 38.672 46.943C33.298 51.107 24.733 47.691 23.366 40.578L39.165 40.778Z" fill="black"/>
<path fill-rule="evenodd" clip-rule="evenodd" d="M31.129 10.432C52.41 10.432 44.116 45.698 31.129 45.698C18.863 45.698 9.84799 10.432 31.129 10.432Z" fill="#FFE8BE"/>
<path fill-rule="evenodd" clip-rule="evenodd" d="M18.365 26.046C15.295 27.385 17.905 33.732 19.837 33.704C19.0356 31.2206 18.5413 28.6495 18.365 26.046ZM44.135 26.046C47.205 27.385 44.6 33.732 42.669 33.703C43.4681 31.22 43.9604 28.6486 44.135 26.046Z" fill="#F9DCA4"/>
<path fill-rule="evenodd" clip-rule="evenodd" d="M44.123 26.17C44.123 26.17 52.083 14.385 41.487 9.83598C40.1604 7.72589 38.2038 6.08644 35.8942 5.14964C33.5845 4.21285 31.0386 4.02615 28.617 4.61598C22.775 5.80498 20.604 8.69998 20.604 8.69998C20.604 8.69998 15.074 13.714 10.164 13.817C11.9943 15.1047 14.2111 15.7252 16.444 15.575C15.772 17.255 14.479 22.785 18.433 26.429C22.801 23.561 26.445 17.952 26.445 17.952C26.445 17.952 27.427 21.209 26.652 22.812C29.5309 22.2657 32.2432 21.0568 34.574 19.281C37.116 17.245 38.467 14.984 39.884 14.955C43.14 14.886 44.097 24.695 44.124 26.171L44.123 26.17Z" fill="#ECBE6A"/>
<path fill-rule="evenodd" clip-rule="evenodd" d="M53.456 54.022C50.573 57.1201 47.0817 59.5901 43.2006 61.2776C39.3195 62.965 35.1321 63.8336 30.9 63.829C29.6187 63.8289 28.3386 63.7497 27.067 63.592C23.1673 63.0323 19.3946 61.7993 15.917 59.948C12.9805 58.3122 10.3296 56.2097 8.06799 53.723L9.34999 50.623L23.26 44.411C23.885 48.134 31.066 52.586 31.066 52.586C31.066 52.586 38.279 49.174 39.153 44.375L51.93 50.656L53.456 54.022Z" fill="#498BD9"/>
<mask id="mask0_4_241" style="mask-type:luminance" maskUnits="userSpaceOnUse" x="8" y="44" width="46" height="20">
<path fill-rule="evenodd" clip-rule="evenodd" d="M53.456 54.022C50.573 57.1201 47.0817 59.5901 43.2006 61.2776C39.3195 62.965 35.1321 63.8336 30.9 63.829C29.6187 63.8289 28.3386 63.7497 27.067 63.592C23.1673 63.0323 19.3946 61.7993 15.917 59.948C12.9805 58.3122 10.3296 56.2097 8.06799 53.723L9.34999 50.623L23.26 44.411C23.885 48.134 31.066 52.586 31.066 52.586C31.066 52.586 38.279 49.174 39.153 44.375L51.93 50.656L53.456 54.022Z" fill="white"/>
</mask>
<g mask="url(#mask0_4_241)">
<path fill-rule="evenodd" clip-rule="evenodd" d="M14.112 48.496L20.926 45.454L31.135 59.432L41.463 45.494L47.412 48.325V68.358H14.112V48.496Z" fill="#545F69"/>
<mask id="mask1_4_241" style="mask-type:luminance" maskUnits="userSpaceOnUse" x="14" y="45" width="34" height="24">
<path fill-rule="evenodd" clip-rule="evenodd" d="M14.112 48.496L20.926 45.454L31.135 59.432L41.463 45.494L47.412 48.325V68.358H14.112V48.496Z" fill="white"/>
</mask>
<g mask="url(#mask1_4_241)">
<path fill-rule="evenodd" clip-rule="evenodd" d="M37.79 44.881H38.522V66.263H37.79V44.881ZM23.015 44.881H23.746V66.263H23.016V44.881H23.015ZM20.034 44.881H20.765V66.263H20.034V44.881ZM17.09 44.881H17.821V66.263H17.091L17.09 44.881ZM14.109 44.881H14.84V66.263H14.109V44.881ZM34.817 44.881H35.548V66.263H34.817V44.881ZM31.836 44.881H32.567V66.263H31.836V44.881ZM28.892 44.881H29.623V66.263H28.892V44.881ZM25.911 44.881H26.642V66.263H25.911V44.881ZM46.696 44.881H47.428V66.263H46.696V44.881ZM43.716 44.881H44.446V66.263H43.716V44.881ZM40.772 44.881H41.502V66.263H40.772V44.881Z" fill="#434955"/>
</g>
</g>
<path fill-rule="evenodd" clip-rule="evenodd" d="M23.265 43.27L31.067 52.586L24.762 56.139L19.939 45.548L23.265 43.27ZM39.155 43.45L31.067 52.586L37.585 56.139L42.362 45.42L39.155 43.45Z" fill="#58B0E0"/>
<path fill-rule="evenodd" clip-rule="evenodd" d="M21.637 25.157H28.053C28.2609 25.1569 28.4667 25.1979 28.6587 25.2775C28.8507 25.3571 29.0252 25.4738 29.172 25.621V25.623C29.3189 25.7695 29.4356 25.9436 29.5152 26.1353C29.5948 26.327 29.6359 26.5324 29.636 26.74V29.633C29.6355 30.0527 29.4685 30.455 29.1718 30.7517C28.875 31.0485 28.4727 31.2155 28.053 31.216H21.637C21.4295 31.2156 21.2242 31.1744 21.0327 31.0946C20.8412 31.0148 20.6673 30.898 20.521 30.751H20.519C20.372 30.6043 20.2553 30.43 20.1757 30.2382C20.0961 30.0463 20.0551 29.8407 20.055 29.633V26.74C20.0551 26.5324 20.0962 26.327 20.1758 26.1353C20.2554 25.9436 20.372 25.7695 20.519 25.623L20.521 25.621C20.6674 25.4741 20.8413 25.3575 21.0328 25.2779C21.2243 25.1983 21.4296 25.1572 21.637 25.157ZM28.053 26.007H21.637C21.4432 26.0074 21.2574 26.0843 21.12 26.221L21.119 26.223C20.9823 26.3604 20.9054 26.5462 20.905 26.74V29.633C20.905 29.7291 20.9241 29.8242 20.961 29.9129C20.9978 30.0016 21.0519 30.0822 21.12 30.15C21.2572 30.2871 21.443 30.3643 21.637 30.365H28.053C28.2469 30.3642 28.4326 30.2868 28.5697 30.1497C28.7068 30.0126 28.7842 29.8269 28.785 29.633V26.74C28.785 26.5458 28.708 26.3595 28.571 26.222C28.5031 26.1538 28.4223 26.0997 28.3334 26.0628C28.2445 26.0259 28.1492 26.007 28.053 26.007ZM34.548 25.157H40.964C41.1717 25.157 41.3773 25.1981 41.5692 25.2777C41.761 25.3573 41.9353 25.474 42.082 25.621V25.623C42.2291 25.7695 42.3459 25.9435 42.4257 26.1352C42.5055 26.3268 42.5467 26.5324 42.547 26.74V29.633C42.5465 30.0527 42.3795 30.455 42.0828 30.7517C41.786 31.0485 41.3837 31.2155 40.964 31.216H34.548C34.3404 31.2157 34.1349 31.1744 33.9432 31.0946C33.7516 31.0149 33.5775 30.8981 33.431 30.751L33.43 30.749C33.1332 30.4533 32.9659 30.0519 32.965 29.633V26.74C32.9653 26.5324 33.0065 26.3269 33.0863 26.1352C33.1661 25.9435 33.2829 25.7695 33.43 25.623L33.432 25.622C33.7276 25.3252 34.1291 25.1579 34.548 25.157ZM40.964 26.007H34.548C34.452 26.0069 34.3569 26.0258 34.2682 26.0625C34.1795 26.0992 34.0989 26.1531 34.031 26.221L34.03 26.223C33.962 26.2908 33.9081 26.3714 33.8714 26.4601C33.8347 26.5489 33.8159 26.644 33.816 26.74V29.633C33.8159 29.729 33.8348 29.8241 33.8715 29.9128C33.9082 30.0015 33.9621 30.0821 34.03 30.15L34.031 30.151C34.0989 30.2189 34.1795 30.2728 34.2682 30.3095C34.3569 30.3462 34.452 30.3651 34.548 30.365H40.964C41.1579 30.3642 41.3436 30.2868 41.4807 30.1497C41.6178 30.0126 41.6952 29.8269 41.696 29.633V26.74C41.696 26.5458 41.619 26.3595 41.482 26.222C41.4142 26.1539 41.3326 26.0999 41.2439 26.063C41.1552 26.0261 41.0601 26.0071 40.964 26.007Z" fill="#464449"/>
<path d="M29.415 26.506H33.26V27.382H29.415V26.506Z" fill="#464449"/>
</g>
<defs>
<clipPath id="clip0_4_241">
<rect width="61.8" height="66.358" fill="white"/>
</clipPath>
</defs>
</svg>
