<svg width="68" height="62" viewBox="0 0 68 62" fill="none" xmlns="http://www.w3.org/2000/svg">
<path d="M34.1319 60.595C51.3255 60.595 65.2637 47.2542 65.2637 30.7975C65.2637 14.3408 51.3255 1 34.1319 1C16.9382 1 3 14.3408 3 30.7975C3 47.2542 16.9382 60.595 34.1319 60.595Z" fill="#3DBC93"/>
<path fill-rule="evenodd" clip-rule="evenodd" d="M56.8793 51.1379C53.9703 54.1259 50.4489 56.5078 46.5351 58.135C42.6212 59.7621 38.399 60.5996 34.1319 60.595C32.8396 60.5949 31.5485 60.5186 30.2661 60.3664C26.3329 59.827 22.5275 58.638 19.0193 56.8525C16.0586 55.2752 13.3854 53.2478 11.1044 50.8496L12.397 47.8602L26.4265 41.8698C26.4265 46.243 27.7463 51.5323 33.9213 51.622C41.5481 51.7319 42.4549 46.3423 42.4549 41.8341L55.3408 47.892L56.8793 51.1379Z" fill="#E9573E"/>
<mask id="mask0_14_2" style="mask-type:luminance" maskUnits="userSpaceOnUse" x="11" y="41" width="46" height="20">
<path fill-rule="evenodd" clip-rule="evenodd" d="M56.8793 51.1379C53.9703 54.1259 50.4489 56.5078 46.5351 58.135C42.6212 59.7621 38.399 60.5996 34.1319 60.595C32.8396 60.5949 31.5485 60.5186 30.2661 60.3664C26.3329 59.827 22.5275 58.638 19.0193 56.8525C16.0586 55.2752 13.3854 53.2478 11.1044 50.8496L12.397 47.8602L26.4265 41.8698C26.4265 46.243 27.7463 51.5323 33.9213 51.622C41.5481 51.7319 42.4549 46.3423 42.4549 41.8341L55.3408 47.892L56.8793 51.1379Z" fill="white"/>
</mask>
<g mask="url(#mask0_14_2)">
<path opacity="0.18" fill-rule="evenodd" clip-rule="evenodd" d="M3.69922 73V72.2652H69.999V73H3.69922ZM13.1708 33.4851V35.6422H15.4024V33.4851H13.1708ZM13.1708 36.378V38.5381H15.4024V36.378H13.1708ZM13.1708 39.2729V41.0665H15.4024V39.2729H13.1708ZM13.1708 41.8014V43.9614H15.4024V41.8014H13.1708ZM13.1708 44.6963V46.8534H15.4024V44.6963H13.1708ZM13.1708 47.5892V49.7493H15.4024V47.5892H13.1708ZM13.1708 50.4841V52.3703H15.4024V50.4841H13.1708ZM13.1708 53.1051V55.2652H15.4024V53.1051H13.1708ZM13.1708 56.001V58.1582H15.4024V56.001H13.1708ZM13.1708 58.893V61.0531H15.4024V58.893H13.1708ZM13.1708 61.7879V63.5815H15.4024V61.7879H13.1708ZM13.1708 64.3173V66.4667H12.4121V64.3163H3.69922V63.5815H12.4121V61.7879H3.69922V61.0531H12.4121V58.893H3.69922V58.1582H12.4121V56.001H3.69922V55.2652H12.4121V53.1051H3.69922V52.3703H12.4121V50.4841H3.69922V49.7493H12.4121V47.5892H3.69922V46.8534H12.4121V44.6963H3.69922V43.9614H12.4121V41.8014H3.69922V41.0665H12.4121V39.2729H3.69922V38.5371H12.4121V36.3771H3.69922V35.6422H12.4121V33.4851H3.69922V32.7493H69.999V33.4851H56.9821V35.6422H69.999V36.3771H56.9821V38.5371H69.999V39.2729H56.9821V41.0665H69.999V41.8014H56.9821V43.9614H69.999V44.6963H56.9821V46.8534H69.999V47.5892H56.9821V49.7493H69.999V50.4841H56.9821V52.3703H69.999V53.1051H56.9821V55.2652H69.999V56.001H56.9821V58.1582H69.999V58.893H56.9821V61.0531H69.999V61.7879H56.9821V63.5815H69.999V64.3163H56.9821V66.4667H56.2214V64.3163H53.9908V66.4667H53.2301V64.3163H51.0025V66.4667H50.2429V64.3163H48.0112V66.4667H47.2516V64.3163H45.3998V66.4667H44.6401V64.3163H42.4085V66.4667H41.6489V64.3163H39.4213V66.4667H38.6616V64.3163H36.43V66.4667H35.6703V64.3163H33.7228V66.4667H32.9632V64.3163H30.7315V66.4667H29.9729V64.3163H27.7443V66.4667H26.9846V64.3163H24.752V66.4667H23.9924V64.3163H22.1426V66.4667H21.3829V64.3163H19.1503V66.4667H18.3906V64.3163H16.162V66.4667H15.4024V64.3163L13.1708 64.3173ZM37.9826 29.8544H70.001V30.5892H3.69821V29.8544H37.9826ZM56.2224 33.4851H53.9918V35.6422H56.2224V33.4851ZM53.2311 33.4851H51.0035V35.6422H53.2311V33.4851ZM50.2439 33.4851H48.0122V35.6422H50.2439V33.4851ZM47.2526 33.4851H45.4008V35.6422H47.2526V33.4851ZM44.6411 33.4851H42.4095V35.6422H44.6411V33.4851ZM41.6499 33.4851H39.4213V35.6422H41.6499V33.4851ZM38.6616 33.4851H36.43V35.6422H38.6616V33.4851ZM35.6703 33.4851H33.7228V35.6422H35.6703V33.4851ZM32.9632 33.4851H30.7315V35.6422H32.9642L32.9632 33.4851ZM29.9719 33.4851H27.7443V35.6422H29.9729L29.9719 33.4851ZM26.9846 33.4851H24.752V35.6422H26.9836L26.9846 33.4851ZM23.9934 33.4851H22.1426V35.6422H23.9944L23.9934 33.4851ZM21.3819 33.4851H19.1503V35.6422H21.3819V33.4851ZM18.3896 33.4851H16.163V35.6422H18.3896V33.4851ZM56.2224 36.378H53.9918V38.5381H56.2224V36.378ZM53.2311 36.378H51.0035V38.5381H53.2311V36.378ZM50.2439 36.378H48.0122V38.5381H50.2439V36.378ZM47.2526 36.378H45.4008V38.5381H47.2526V36.378ZM44.6411 36.378H42.4095V38.5381H44.6411V36.378ZM41.6499 36.378H39.4213V38.5381H41.6499V36.378ZM38.6616 36.378H36.43V38.5381H38.6616V36.378ZM35.6703 36.378H33.7228V38.5381H35.6703V36.378ZM32.9632 36.378H30.7315V38.5381H32.9642L32.9632 36.378ZM29.9719 36.378H27.7443V38.5381H29.9729L29.9719 36.378ZM26.9846 36.378H24.752V38.5381H26.9836L26.9846 36.378ZM23.9934 36.378H22.1426V38.5381H23.9944L23.9934 36.378ZM21.3819 36.378H19.1503V38.5381H21.3819V36.378ZM18.3896 36.378H16.163V38.5381H18.3896V36.378ZM56.2224 39.2729H53.9918V41.0665H56.2224V39.2729ZM53.2311 39.2729H51.0035V41.0665H53.2311V39.2729ZM50.2439 39.2729H48.0122V41.0665H50.2439V39.2729ZM47.2526 39.2729H45.4008V41.0665H47.2526V39.2729ZM44.6411 39.2729H42.4095V41.0665H44.6411V39.2729ZM41.6499 39.2729H39.4213V41.0665H41.6499V39.2729ZM38.6616 39.2729H36.43V41.0665H38.6616V39.2729ZM35.6703 39.2729H33.7228V41.0665H35.6703V39.2729ZM32.9632 39.2729H30.7315V41.0665H32.9642L32.9632 39.2729ZM29.9719 39.2729H27.7443V41.0665H29.9729L29.9719 39.2729ZM26.9846 39.2729H24.752V41.0665H26.9836L26.9846 39.2729ZM23.9934 39.2729H22.1426V41.0665H23.9944L23.9934 39.2729ZM21.3819 39.2729H19.1503V41.0665H21.3819V39.2729ZM18.3896 39.2729H16.163V41.0665H18.3896V39.2729ZM56.2224 41.8014H53.9918V43.9614H56.2224V41.8014ZM53.2311 41.8014H51.0035V43.9614H53.2311V41.8014ZM50.2439 41.8014H48.0122V43.9614H50.2439V41.8014ZM47.2526 41.8014H45.4008V43.9614H47.2526V41.8014ZM44.6411 41.8014H42.4095V43.9614H44.6411V41.8014ZM41.6499 41.8014H39.4213V43.9614H41.6499V41.8014ZM38.6616 41.8014H36.43V43.9614H38.6616V41.8014ZM35.6703 41.8014H33.7228V43.9614H35.6703V41.8014ZM32.9632 41.8014H30.7315V43.9614H32.9642L32.9632 41.8014ZM29.9719 41.8014H27.7443V43.9614H29.9729L29.9719 41.8014ZM26.9846 41.8014H24.752V43.9614H26.9836L26.9846 41.8014ZM23.9934 41.8014H22.1426V43.9614H23.9944L23.9934 41.8014ZM21.3819 41.8014H19.1503V43.9614H21.3819V41.8014ZM18.3896 41.8014H16.163V43.9614H18.3896V41.8014ZM56.2224 44.6963H53.9918V46.8534H56.2224V44.6963ZM53.2311 44.6963H51.0035V46.8534H53.2311V44.6963ZM50.2439 44.6963H48.0122V46.8534H50.2439V44.6963ZM47.2526 44.6963H45.4008V46.8534H47.2526V44.6963ZM44.6411 44.6963H42.4095V46.8534H44.6411V44.6963ZM41.6499 44.6963H39.4213V46.8534H41.6499V44.6963ZM38.6616 44.6963H36.43V46.8534H38.6616V44.6963ZM35.6703 44.6963H33.7228V46.8534H35.6703V44.6963ZM32.9632 44.6963H30.7315V46.8534H32.9642L32.9632 44.6963ZM29.9719 44.6963H27.7443V46.8534H29.9729L29.9719 44.6963ZM26.9846 44.6963H24.752V46.8534H26.9836L26.9846 44.6963ZM23.9934 44.6963H22.1426V46.8534H23.9944L23.9934 44.6963ZM21.3819 44.6963H19.1503V46.8534H21.3819V44.6963ZM18.3896 44.6963H16.163V46.8534H18.3896V44.6963ZM56.2224 47.5892H53.9918V49.7493H56.2224V47.5892ZM53.2311 47.5892H51.0035V49.7493H53.2311V47.5892ZM50.2439 47.5892H48.0122V49.7493H50.2439V47.5892ZM47.2526 47.5892H45.4008V49.7493H47.2526V47.5892ZM44.6411 47.5892H42.4095V49.7493H44.6411V47.5892ZM41.6499 47.5892H39.4213V49.7493H41.6499V47.5892ZM38.6616 47.5892H36.43V49.7493H38.6616V47.5892ZM35.6703 47.5892H33.7228V49.7493H35.6703V47.5892ZM32.9632 47.5892H30.7315V49.7493H32.9642L32.9632 47.5892ZM29.9719 47.5892H27.7443V49.7493H29.9729L29.9719 47.5892ZM26.9846 47.5892H24.752V49.7493H26.9836L26.9846 47.5892ZM23.9934 47.5892H22.1426V49.7493H23.9944L23.9934 47.5892ZM21.3819 47.5892H19.1503V49.7493H21.3819V47.5892ZM18.3896 47.5892H16.163V49.7493H18.3896V47.5892ZM56.2224 50.4841H53.9918V52.3703H56.2224V50.4841ZM53.2311 50.4841H51.0035V52.3703H53.2311V50.4841ZM50.2439 50.4841H48.0122V52.3703H50.2439V50.4841ZM47.2526 50.4841H45.4008V52.3703H47.2526V50.4841ZM44.6411 50.4841H42.4095V52.3703H44.6411V50.4841ZM41.6499 50.4841H39.4213V52.3703H41.6499V50.4841ZM38.6616 50.4841H36.43V52.3703H38.6616V50.4841ZM35.6703 50.4841H33.7228V52.3703H35.6703V50.4841ZM32.9632 50.4841H30.7315V52.3703H32.9642L32.9632 50.4841ZM29.9719 50.4841H27.7443V52.3703H29.9729L29.9719 50.4841ZM26.9846 50.4841H24.752V52.3703H26.9836L26.9846 50.4841ZM23.9934 50.4841H22.1426V52.3703H23.9944L23.9934 50.4841ZM21.3819 50.4841H19.1503V52.3703H21.3819V50.4841ZM18.3896 50.4841H16.163V52.3703H18.3896V50.4841ZM56.2224 53.1051H53.9918V55.2652H56.2224V53.1051ZM53.2311 53.1051H51.0035V55.2652H53.2311V53.1051ZM50.2439 53.1051H48.0122V55.2652H50.2439V53.1051ZM47.2526 53.1051H45.4008V55.2652H47.2526V53.1051ZM44.6411 53.1051H42.4095V55.2652H44.6411V53.1051ZM41.6499 53.1051H39.4213V55.2652H41.6499V53.1051ZM38.6616 53.1051H36.43V55.2652H38.6616V53.1051ZM35.6703 53.1051H33.7228V55.2652H35.6703V53.1051ZM32.9632 53.1051H30.7315V55.2652H32.9642L32.9632 53.1051ZM29.9719 53.1051H27.7443V55.2652H29.9729L29.9719 53.1051ZM26.9846 53.1051H24.752V55.2652H26.9836L26.9846 53.1051ZM23.9934 53.1051H22.1426V55.2652H23.9944L23.9934 53.1051ZM21.3819 53.1051H19.1503V55.2652H21.3819V53.1051ZM18.3896 53.1051H16.163V55.2652H18.3896V53.1051ZM56.2224 56.001H53.9918V58.1582H56.2224V56.001ZM53.2311 56.001H51.0035V58.1582H53.2311V56.001ZM50.2439 56.001H48.0122V58.1582H50.2439V56.001ZM47.2526 56.001H45.4008V58.1582H47.2526V56.001ZM44.6411 56.001H42.4095V58.1582H44.6411V56.001ZM41.6499 56.001H39.4213V58.1582H41.6499V56.001ZM38.6616 56.001H36.43V58.1582H38.6616V56.001ZM35.6703 56.001H33.7228V58.1582H35.6703V56.001ZM32.9632 56.001H30.7315V58.1582H32.9642L32.9632 56.001ZM29.9719 56.001H27.7443V58.1582H29.9729L29.9719 56.001ZM26.9846 56.001H24.752V58.1582H26.9836L26.9846 56.001ZM23.9934 56.001H22.1426V58.1582H23.9944L23.9934 56.001ZM21.3819 56.001H19.1503V58.1582H21.3819V56.001ZM18.3896 56.001H16.163V58.1582H18.3896V56.001ZM56.2224 58.893H53.9918V61.0531H56.2224V58.893ZM53.2311 58.893H51.0035V61.0531H53.2311V58.893ZM50.2439 58.893H48.0122V61.0531H50.2439V58.893ZM47.2526 58.893H45.4008V61.0531H47.2526V58.893ZM44.6411 58.893H42.4095V61.0531H44.6411V58.893ZM41.6499 58.893H39.4213V61.0531H41.6499V58.893ZM38.6616 58.893H36.43V61.0531H38.6616V58.893ZM35.6703 58.893H33.7228V61.0531H35.6703V58.893ZM32.9632 58.893H30.7315V61.0531H32.9642L32.9632 58.893ZM29.9719 58.893H27.7443V61.0531H29.9729L29.9719 58.893ZM26.9846 58.893H24.752V61.0531H26.9836L26.9846 58.893ZM23.9934 58.893H22.1426V61.0531H23.9944L23.9934 58.893ZM21.3819 58.893H19.1503V61.0531H21.3819V58.893ZM18.3896 58.893H16.163V61.0531H18.3896V58.893ZM56.2224 61.7879H53.9918V63.5815H56.2224V61.7879ZM53.2311 61.7879H51.0035V63.5815H53.2311V61.7879ZM50.2439 61.7879H48.0122V63.5815H50.2439V61.7879ZM47.2526 61.7879H45.4008V63.5815H47.2526V61.7879ZM44.6411 61.7879H42.4095V63.5815H44.6411V61.7879ZM41.6499 61.7879H39.4213V63.5815H41.6499V61.7879ZM38.6616 61.7879H36.43V63.5815H38.6616V61.7879ZM35.6703 61.7879H33.7228V63.5815H35.6703V61.7879ZM32.9632 61.7879H30.7315V63.5815H32.9642L32.9632 61.7879ZM29.9719 61.7879H27.7443V63.5815H29.9729L29.9719 61.7879ZM26.9846 61.7879H24.752V63.5815H26.9836L26.9846 61.7879ZM23.9934 61.7879H22.1426V63.5815H23.9944L23.9934 61.7879ZM21.3819 61.7879H19.1503V63.5815H21.3819V61.7879ZM18.3896 61.7879H16.163V63.5815H18.3896V61.7879ZM37.9836 66.4774H70.002V67.2122H3.69821V66.4774H37.9815H37.9836ZM37.9836 69.3693H70.002V70.1051H3.69821V69.3693H37.9815H37.9836Z" fill="black"/>
</g>
<path fill-rule="evenodd" clip-rule="evenodd" d="M26.4295 38.2999L42.4559 38.4166V50.8737L26.4295 50.757V38.2999Z" fill="#F9DCA4"/>
<path fill-rule="evenodd" clip-rule="evenodd" d="M42.4559 59.5169C37.2184 60.8986 31.6956 60.9531 26.4295 59.675V46.8881C30.3809 51.433 38.3664 51.3857 42.4559 47.0048V59.5169Z" fill="#677079"/>
<path opacity="0.11" fill-rule="evenodd" clip-rule="evenodd" d="M42.4589 42.9094V45.0868C42.4589 45.2421 42.4609 46.4947 42.4559 46.5015C37.6702 49.8496 27.8078 47.8178 26.4295 43.4889L42.4589 42.9094Z" fill="black"/>
<path fill-rule="evenodd" clip-rule="evenodd" d="M34.3626 9.13113C55.8033 9.13113 47.447 43.1389 34.3626 43.1389C22.0045 43.1389 12.9219 9.13113 34.3626 9.13113Z" fill="#FFE8BE"/>
<path fill-rule="evenodd" clip-rule="evenodd" d="M21.5028 24.188C18.4098 25.4793 21.0394 31.5998 22.9859 31.5728C22.1785 29.178 21.6804 26.6986 21.5028 24.188ZM47.4712 24.1871C50.5643 25.4783 47.9347 31.5998 45.9892 31.5718C46.7959 29.1773 47.2937 26.6973 47.4712 24.1871Z" fill="#F9DCA4"/>
<path fill-rule="evenodd" clip-rule="evenodd" d="M26.4325 52.3394L24.0105 50.1832L19.1714 52.4571L26.4305 39.2941L26.4325 52.3394ZM42.4508 52.3394L44.8729 50.1823L49.7129 52.4571L42.4528 39.2932L42.4508 52.3394Z" fill="#434955"/>
<path fill-rule="evenodd" clip-rule="evenodd" d="M21.5058 24.0858C18.6526 19.3028 17.7902 16.1688 19.2208 13.8158C21.2852 10.4214 25.8411 10.837 26.2381 10.0376C30.2933 1.86114 51.2635 8.06268 50.3879 20.7319C49.9604 19.8865 49.4468 19.0835 48.8545 18.3346C48.8545 18.3346 48.779 23.1475 47.4067 25.0434C45.7313 22.2719 40.9315 19.5014 40.9315 19.5014C40.9315 19.5014 42.2261 23.6577 43.0644 24.5333C41.9823 24.4426 29.8067 21.1784 26.6824 11.4793C22.6453 13.6673 21.3527 20.5111 21.5038 24.0849L21.5058 24.0858Z" fill="#60350A"/>
<path fill-rule="evenodd" clip-rule="evenodd" d="M34.3837 45.8823C31.7038 45.9036 19.2178 46.0135 21.4917 23.9797C21.4917 23.9797 22.333 30.3288 24.4739 33.0983C24.658 33.4085 24.9099 33.6768 25.2124 33.8851C25.5149 34.0933 25.8609 34.2365 26.2266 34.3048C26.5923 34.3731 26.9691 34.365 27.3313 34.2809C27.6934 34.1968 28.0322 34.0388 28.3246 33.8177C29.4933 33.0125 29.7321 31.4966 31.1799 31.0048C31.733 30.7593 32.3567 30.7002 32.9494 30.8371C33.5421 30.974 34.0689 31.2989 34.4442 31.7589C34.8125 31.2981 35.3346 30.972 35.9236 30.8348C36.5126 30.6976 37.1329 30.7576 37.6813 31.0048C39.1291 31.4966 39.3689 33.0125 40.5365 33.8177C40.8289 34.0387 41.1677 34.1965 41.5297 34.2805C41.8917 34.3645 42.2684 34.3726 42.634 34.3043C42.9996 34.236 43.3454 34.0928 43.6479 33.8847C43.9503 33.6765 44.2022 33.4083 44.3862 33.0983C46.5282 30.3279 47.3704 23.9797 47.3704 23.9797C49.6434 46.0145 37.0637 45.9036 34.3837 45.8823Z" fill="#60350A"/>
<path fill-rule="evenodd" clip-rule="evenodd" d="M27.1196 35.5757C27.1196 35.5757 32.802 37.2141 34.4069 32.2006L34.4301 32.1283L34.4522 32.2006C36.0562 37.2141 41.7405 35.5757 41.7405 35.5757C38.7412 37.946 36.5257 35.3771 34.4009 35.4272C32.1108 35.4812 30.0333 37.8785 27.1186 35.5757H27.1196Z" fill="#362008"/>
</svg>
