<svg width="62" height="62" viewBox="0 0 62 62" fill="none" xmlns="http://www.w3.org/2000/svg">
<g clip-path="url(#clip0_4_394)">
<path d="M30.9 61.8C47.9656 61.8 61.8 47.9656 61.8 30.9C61.8 13.8344 47.9656 0 30.9 0C13.8344 0 0 13.8344 0 30.9C0 47.9656 13.8344 61.8 30.9 61.8Z" fill="#9F82BB"/>
<path fill-rule="evenodd" clip-rule="evenodd" d="M23.255 38.68L39.162 38.801V51.719L23.255 51.598V38.68Z" fill="#F9DCA4"/>
<path fill-rule="evenodd" clip-rule="evenodd" d="M53.478 51.993C50.5906 55.0915 47.0955 57.5616 43.2108 59.2489C39.3261 60.9363 35.1353 61.8047 30.9 61.8C27.7708 61.793 24.6601 61.3205 21.67 60.398C16.4405 58.7477 11.7399 55.745 8.04401 51.694L9.32701 48.594L23.252 42.382C23.252 46.917 24.771 49.442 30.9 49.535C38.47 49.648 39.161 47.02 39.161 42.345L51.951 48.627L53.478 51.993Z" fill="white"/>
<path opacity="0.11" fill-rule="evenodd" clip-rule="evenodd" d="M39.166 38.778V42.358C39.166 42.655 39.162 43.16 39.137 43.631C34.982 49.191 24.827 46.178 23.366 38.578L39.166 38.778Z" fill="black"/>
<path fill-rule="evenodd" clip-rule="evenodd" d="M31.129 8.43201C52.41 8.43201 44.117 43.698 31.129 43.698C18.863 43.698 9.848 8.43201 31.129 8.43201Z" fill="#FFE8BE"/>
<path fill-rule="evenodd" clip-rule="evenodd" d="M18.365 24.045C15.295 25.385 17.905 31.732 19.837 31.703C19.0358 29.2199 18.5414 26.6481 18.365 24.045ZM44.14 24.045C47.21 25.384 44.6 31.732 42.669 31.703C43.4697 29.2198 43.9637 26.6481 44.14 24.045Z" fill="#F9DCA4"/>
<path fill-rule="evenodd" clip-rule="evenodd" d="M22.035 35.1C21.9893 34.9359 21.9661 34.7663 21.966 34.596V34.591C21.977 34.2569 22.1053 33.9374 22.3284 33.6885C22.5515 33.4396 22.8551 33.2773 23.186 33.23C23.0406 33.3881 22.9474 33.5872 22.9191 33.8002C22.8908 34.0132 22.9287 34.2298 23.0278 34.4204C23.1269 34.611 23.2823 34.7666 23.4729 34.8658C23.6635 34.965 23.88 35.0031 24.093 34.975C24.43 34.9265 24.7596 34.8358 25.074 34.705C25.367 34.571 25.681 34.416 26.017 34.224C26.5139 33.9173 26.9902 33.5786 27.443 33.21C27.9683 32.7327 28.644 32.4543 29.353 32.423C29.8253 32.422 30.2829 32.5869 30.646 32.889C30.884 33.0725 31.0906 33.2934 31.258 33.543C31.4252 33.2932 31.6319 33.0723 31.87 32.889C32.2328 32.5871 32.6901 32.4222 33.162 32.423C33.8714 32.454 34.5475 32.7324 35.073 33.21C35.5258 33.5786 36.0021 33.9174 36.499 34.224C36.835 34.416 37.149 34.571 37.442 34.704C37.7563 34.8352 38.0859 34.9262 38.423 34.975C38.6359 35.0029 38.8523 34.9646 39.0427 34.8653C39.2331 34.7659 39.3883 34.6104 39.4872 34.4198C39.5862 34.2292 39.6241 34.0128 39.5958 33.7999C39.5675 33.5871 39.4743 33.3881 39.329 33.23C39.6597 33.2772 39.9632 33.4394 40.1863 33.6881C40.4094 33.9368 40.5378 34.2561 40.549 34.59H40.551L40.55 34.596C40.55 34.7663 40.5267 34.9359 40.481 35.1C39.701 38.731 33.108 37.869 31.258 35.636C29.408 37.869 22.814 38.731 22.035 35.1Z" fill="#8A5C42"/>
<path fill-rule="evenodd" clip-rule="evenodd" d="M26.431 5.73999H35.935C38.1884 5.74659 40.3476 6.64466 41.941 8.23804C43.5343 9.83142 44.4324 11.9906 44.439 14.244V20.834H17.927V14.244C17.9336 11.9906 18.8317 9.83142 20.4251 8.23804C22.0184 6.64466 24.1776 5.74659 26.431 5.73999Z" fill="#464449"/>
<path fill-rule="evenodd" clip-rule="evenodd" d="M12.684 19.828H49.682C50.0447 19.8288 50.3923 19.9731 50.6488 20.2295C50.9053 20.4858 51.0499 20.8333 51.051 21.196C51.0505 21.559 50.9061 21.907 50.6495 22.1638C50.3929 22.4206 50.045 22.5652 49.682 22.566H12.684C12.3212 22.5649 11.9735 22.4202 11.7171 22.1635C11.4608 21.9067 11.3165 21.5588 11.316 21.196C11.317 20.8335 11.4615 20.4862 11.7178 20.2298C11.9742 19.9735 12.3215 19.8291 12.684 19.828Z" fill="#333333"/>
<path d="M17.927 15.858H44.44V19.828H17.927V15.858Z" fill="#677079"/>
<path fill-rule="evenodd" clip-rule="evenodd" d="M29.42 48.273V61.763C30.5955 61.8244 31.7737 61.8144 32.948 61.733V48.273H29.42ZM23.255 42.176L29.419 49.457L20.582 52.375L20.559 43.352L23.255 42.176ZM39.192 42.176L33.028 49.457L41.866 52.375L41.888 43.352L39.192 42.176Z" fill="#D5E1ED"/>
<path fill-rule="evenodd" clip-rule="evenodd" d="M24.018 45.933L29.108 47.913C29.3526 47.6096 29.6628 47.3656 30.0151 47.1992C30.3675 47.0328 30.753 46.9484 31.1427 46.9522C31.5324 46.9561 31.9161 47.0481 32.2652 47.2214C32.6142 47.3947 32.9194 47.6448 33.158 47.953L38.348 45.933V53.136L33.155 51.12C32.9163 51.427 32.6113 51.676 32.2628 51.8486C31.9143 52.0212 31.5313 52.1127 31.1424 52.1165C30.7536 52.1202 30.3689 52.0361 30.0171 51.8703C29.6654 51.7045 29.3556 51.4613 29.111 51.159L24.018 53.136V45.933Z" fill="#464449"/>
<path fill-rule="evenodd" clip-rule="evenodd" d="M15.115 46.012L18.419 44.538V59.176C17.2881 58.6665 16.1852 58.097 15.115 57.47V46.012ZM46.933 46.163L43.629 44.538V59.065C44.7641 58.5497 45.8674 57.967 46.933 57.32V46.163Z" fill="#8A5C42"/>
</g>
<defs>
<clipPath id="clip0_4_394">
<rect width="61.8" height="61.804" fill="white"/>
</clipPath>
</defs>
</svg>
