<svg width="62" height="62" viewBox="0 0 62 62" fill="none" xmlns="http://www.w3.org/2000/svg">
<g clip-path="url(#clip0_4_196)">
<path d="M30.9 61.8C47.9656 61.8 61.8 47.9656 61.8 30.9C61.8 13.8344 47.9656 0 30.9 0C13.8344 0 0 13.8344 0 30.9C0 47.9656 13.8344 61.8 30.9 61.8Z" fill="#485A69"/>
<path fill-rule="evenodd" clip-rule="evenodd" d="M23.242 38.592L39.162 38.801V51.719L23.255 51.598L23.242 38.592Z" fill="#F9DCA4"/>
<path fill-rule="evenodd" clip-rule="evenodd" d="M53.478 51.993C50.5906 55.0916 47.0955 57.5616 43.2108 59.249C39.3261 60.9363 35.1353 61.8047 30.9 61.8C29.6173 61.7999 28.3359 61.7207 27.063 61.563C23.1422 61.0779 19.3519 59.8406 15.9 57.919C12.961 56.2835 10.3074 54.1811 8.043 51.694L9.327 48.594L23.252 42.382C23.252 46.917 25.092 48.534 31.222 48.626C38.792 48.739 39.162 47.02 39.162 42.346L51.952 48.627L53.478 51.993Z" fill="#D5E1ED"/>
<path opacity="0.11" fill-rule="evenodd" clip-rule="evenodd" d="M39.165 38.778V42.182C36.415 47.096 25.165 47.18 23.242 38.592L39.165 38.778Z" fill="black"/>
<path fill-rule="evenodd" clip-rule="evenodd" d="M31.129 8.43201C52.41 8.43201 44.116 43.698 31.129 43.698C18.862 43.698 9.848 8.43201 31.129 8.43201Z" fill="#FFE8BE"/>
<path fill-rule="evenodd" clip-rule="evenodd" d="M18.365 24.045C15.295 25.385 17.905 31.732 19.837 31.703C19.0357 29.22 18.5414 26.6482 18.365 24.045ZM44.14 24.045C47.21 25.384 44.6 31.732 42.669 31.703C43.4698 29.2199 43.9638 26.6481 44.14 24.045Z" fill="#F9DCA4"/>
<path fill-rule="evenodd" clip-rule="evenodd" d="M43.409 29.584C43.409 29.584 44.475 20.868 41.394 17.832C40.054 21.36 33.892 22.565 33.892 22.565C35.0885 21.7282 36.1694 20.7373 37.107 19.618C35.455 20.333 30.231 22.476 25.497 20.779C26.7849 20.0027 27.996 19.1057 29.114 18.1C29.114 18.1 24.827 20.422 20.674 19.842C17.683 22.074 19.014 29.004 19.014 29.004C15 18.417 18.697 6.29601 31.39 6.22601C43.748 6.15701 47.561 18.073 43.409 29.584Z" fill="#ECBE6A"/>
<path fill-rule="evenodd" clip-rule="evenodd" d="M23.255 42.179C25.2005 45.0778 27.9734 47.3239 31.213 48.625L26.031 53.974L19.44 43.87L23.255 42.179Z" fill="white"/>
<path fill-rule="evenodd" clip-rule="evenodd" d="M39.16 42.179C37.2144 45.0777 34.4415 47.3238 31.202 48.625L36.383 53.974L42.975 43.871L39.16 42.179Z" fill="white"/>
<path fill-rule="evenodd" clip-rule="evenodd" d="M33.366 61.7C32.54 61.7647 31.7053 61.7973 30.862 61.798C30.226 61.798 29.5943 61.7793 28.967 61.742L29.998 52.985H32.408L33.366 61.7Z" fill="#3DBC93"/>
<path fill-rule="evenodd" clip-rule="evenodd" d="M28.472 51.456L31.209 48.639L33.945 51.456L31.209 54.273L28.472 51.456Z" fill="#3DBC93"/>
</g>
<defs>
<clipPath id="clip0_4_196">
<rect width="61.8" height="61.8" fill="white"/>
</clipPath>
</defs>
</svg>
