<svg width="62" height="62" viewBox="0 0 62 62" fill="none" xmlns="http://www.w3.org/2000/svg">
<g clip-path="url(#clip0_4_428)">
<path fill-rule="evenodd" clip-rule="evenodd" d="M31.129 8.43201C52.41 8.43201 44.117 43.698 31.129 43.698C18.863 43.698 9.848 8.43201 31.129 8.43201Z" fill="#FFE8BE"/>
<path d="M30.9 61.8C47.9656 61.8 61.8 47.9656 61.8 30.9C61.8 13.8344 47.9656 0 30.9 0C13.8344 0 0 13.8344 0 30.9C0 47.9656 13.8344 61.8 30.9 61.8Z" fill="#A9CF54"/>
<path d="M19.012 21.716H43.516V48.29H19.013L19.012 21.716Z" fill="#302E33"/>
<path fill-rule="evenodd" clip-rule="evenodd" d="M24.744 38.68L37.675 38.801V51.719L24.744 51.598V38.68Z" fill="#F9DCA4"/>
<path opacity="0.11" fill-rule="evenodd" clip-rule="evenodd" d="M37.677 38.778V42.358C37.677 42.655 37.675 42.471 37.675 42.871C37.7134 43.1553 37.6747 43.4447 37.563 43.709C33.194 47.873 25.945 45.691 24.833 38.578L37.677 38.778Z" fill="black"/>
<path fill-rule="evenodd" clip-rule="evenodd" d="M52.797 52.701C50.081 46.414 43.884 45.808 37.675 42.871C37.675 48.285 24.743 47.85 24.743 42.607C19.175 45.127 11.113 46.327 8.717 52.408C11.5732 55.3545 14.9878 57.7025 18.7614 59.3148C22.535 60.9272 26.592 61.7717 30.6956 61.799C34.7991 61.8262 38.867 61.0358 42.6617 59.4737C46.4564 57.9116 49.9019 55.6093 52.797 52.701Z" fill="#498BD9"/>
<path fill-rule="evenodd" clip-rule="evenodd" d="M43.391 25.54C46.351 26.83 43.516 32.075 42.088 31.566C39.786 30.744 43.252 27.982 43.391 25.539V25.54Z" fill="#F9DCA4"/>
<path fill-rule="evenodd" clip-rule="evenodd" d="M31.114 8.66602C39.836 8.66602 43.491 14.866 43.715 22.033C44.022 31.843 38.04 43.463 31.115 43.463C24.555 43.463 18.409 31.445 18.782 21.535C19.042 14.582 22.596 8.66602 31.114 8.66602Z" fill="#FFE8BE"/>
<path fill-rule="evenodd" clip-rule="evenodd" d="M39.736 20.216C39.736 20.216 34.573 37.976 14.336 32.054C19.389 29.301 18.824 25.282 18.467 20.216H39.736Z" fill="#464449"/>
<path fill-rule="evenodd" clip-rule="evenodd" d="M33.665 20.548C33.665 20.548 36.597 29.943 46.7 30.666C45.5385 29.7391 44.5651 28.5986 43.832 27.306C44.7203 27.7111 45.7155 27.8191 46.67 27.614C44.214 25.772 43.602 24.275 44.015 20.724C44.428 17.173 33.665 20.548 33.665 20.548Z" fill="#464449"/>
<path d="M31.264 27.377C39.8664 27.377 46.84 25.7621 46.84 23.77C46.84 21.7779 39.8664 20.163 31.264 20.163C22.6616 20.163 15.688 21.7779 15.688 23.77C15.688 25.7621 22.6616 27.377 31.264 27.377Z" fill="#58B0E0"/>
<path fill-rule="evenodd" clip-rule="evenodd" d="M26.971 6.62299H35.557C37.8102 6.62958 39.9692 7.52751 41.5626 9.12068C43.1559 10.7138 44.0541 12.8728 44.061 15.126V21.716H18.467V15.126C18.4739 12.8728 19.372 10.7138 20.9654 9.12068C22.5588 7.52751 24.7178 6.62958 26.971 6.62299Z" fill="#2881BB"/>
<path fill-rule="evenodd" clip-rule="evenodd" d="M26.405 13.19H28.43L29.898 16.113V14.323C29.9043 14.2262 29.8955 14.1291 29.872 14.035C29.8551 13.9847 29.8206 13.9421 29.775 13.915C29.6999 13.8859 29.6192 13.8743 29.539 13.881H29.295V13.19H31.361V13.881H31.133C31.0494 13.8759 30.9657 13.8896 30.888 13.921C30.8428 13.944 30.8068 13.9817 30.786 14.028C30.7618 14.124 30.7523 14.2231 30.758 14.322V18.198H29.723L27.868 14.506V17.09C27.8617 17.1855 27.8708 17.2814 27.895 17.374C27.9148 17.4165 27.9487 17.4508 27.991 17.471C28.068 17.4994 28.1501 17.5113 28.232 17.506H28.472V18.198H26.405V17.507H26.619C26.7016 17.5124 26.7844 17.5019 26.863 17.476C26.9095 17.4539 26.9469 17.4165 26.969 17.37C26.9988 17.2985 27.0121 17.2213 27.008 17.144V14.269C27.0126 14.1865 27.0007 14.1039 26.973 14.026C26.9534 13.9793 26.9194 13.9401 26.876 13.914C26.8117 13.8864 26.7417 13.8748 26.672 13.88H26.405V13.19ZM31.558 13.19H34.043V13.881H33.857C33.7735 13.873 33.6892 13.8833 33.61 13.911C33.5932 13.9209 33.5795 13.9353 33.5707 13.9527C33.5618 13.9701 33.5581 13.9896 33.56 14.009C33.5747 14.1106 33.6146 14.2068 33.676 14.289L34.335 15.38L35.068 14.249C35.1047 14.1948 35.1407 14.1402 35.176 14.085C35.1854 14.0587 35.1902 14.0309 35.19 14.003C35.1916 13.9853 35.1887 13.9675 35.1815 13.9512C35.1743 13.9349 35.1631 13.9208 35.149 13.91C35.0878 13.8842 35.0211 13.8742 34.955 13.881H34.698V13.19H36.69V13.881C36.5641 13.8598 36.4348 13.8817 36.3229 13.943C36.2109 14.0043 36.1229 14.1015 36.073 14.219L34.742 16.166V17.06C34.735 17.1636 34.7451 17.2677 34.772 17.368C34.7926 17.4147 34.8301 17.4518 34.877 17.472C34.9711 17.501 35.0697 17.5125 35.168 17.506H35.345V18.198H32.903V17.507H33.034C33.1439 17.5148 33.2543 17.503 33.36 17.472C33.4093 17.4481 33.4483 17.4073 33.47 17.357C33.5014 17.2517 33.5135 17.1416 33.506 17.032V16.249L32.176 14.219C32.1079 14.0991 32.0127 13.9967 31.898 13.92C31.7879 13.8869 31.6727 13.8737 31.558 13.881V13.19Z" fill="white"/>
<path fill-rule="evenodd" clip-rule="evenodd" d="M30.41 46.686L31.671 46.698V50.148H30.41V46.686Z" fill="#E6E6E6"/>
<path opacity="0.33" d="M30.384 61.79L30.435 50.148L31.697 50.153L31.646 61.795L30.384 61.79Z" fill="white"/>
<path fill-rule="evenodd" clip-rule="evenodd" d="M9.086 52.785C10.3896 50.1703 12.5485 48.0802 15.204 46.862C19.36 45.075 24.792 43.277 24.808 43.272L25.128 44.076C25.113 44.081 19.671 45.866 15.54 47.642C13.0096 48.8502 10.9524 50.8651 9.692 53.37L9.086 52.785ZM52.43 53.064C51.1267 50.4507 48.9685 48.362 46.314 47.145C42.158 45.358 37.541 43.835 37.526 43.831L37.134 44.608C37.149 44.613 41.848 46.15 45.978 47.926C48.5052 49.13 50.5603 51.1401 51.82 53.64L52.195 53.29L52.43 53.064Z" fill="#E6E6E6"/>
</g>
<defs>
<clipPath id="clip0_4_428">
<rect width="61.8" height="61.8" fill="white"/>
</clipPath>
</defs>
</svg>
