<svg width="62" height="62" viewBox="0 0 62 62" fill="none" xmlns="http://www.w3.org/2000/svg">
<g clip-path="url(#clip0_4_145)">
<path d="M30.9 61.8C47.9656 61.8 61.8 47.9656 61.8 30.9C61.8 13.8344 47.9656 0 30.9 0C13.8344 0 0 13.8344 0 30.9C0 47.9656 13.8344 61.8 30.9 61.8Z" fill="#FFC200"/>
<path fill-rule="evenodd" clip-rule="evenodd" d="M52.587 52.908C46.7556 58.6558 38.881 61.8537 30.6933 61.7992C22.5055 61.7446 14.6742 58.442 8.91998 52.617C9.65589 50.5819 11.0852 48.8711 12.957 47.785C14.2185 46.8523 15.5864 46.0728 17.032 45.463C14.834 37.91 20.809 34.197 23.095 33.128C23.095 36.615 26.36 34.301 30.412 34.345C33.748 34.382 40.345 37.74 40.345 33.31C44.015 34.396 48.015 41.39 45.262 45.687C46.3907 46.2389 47.4571 46.9101 48.443 47.689C50.3703 48.9154 51.8297 50.7527 52.587 52.908Z" fill="#677079"/>
<path fill-rule="evenodd" clip-rule="evenodd" d="M24.032 38.68L38.952 38.77V42.207L38.945 42.26C38.9347 42.4157 38.9113 42.5702 38.875 42.722L38.825 43.063L38.795 43.134C37.829 48.208 33.602 50.169 30.992 51.535C28.242 50.037 24.354 47.338 24.045 42.563L24.032 42.504V42.304C24.0299 42.235 24.0285 42.166 24.028 42.097C24.028 42.133 24.031 42.167 24.032 42.203V38.68Z" fill="#F9DCA4"/>
<path opacity="0.11" fill-rule="evenodd" clip-rule="evenodd" d="M38.953 38.617V42.622C38.9501 42.9932 38.9183 43.3637 38.858 43.73C38.7823 44.1834 38.6548 44.6267 38.478 45.051C33.294 48.966 25.034 45.755 23.715 39.068L38.953 38.617Z" fill="black"/>
<path fill-rule="evenodd" clip-rule="evenodd" d="M18.104 25.235C13.164 26.505 17.364 32.525 20.471 32.499C19.218 30.2542 18.414 27.787 18.104 25.235ZM43.837 25.235C48.777 26.505 44.577 32.525 41.469 32.498C42.7223 30.2537 43.5266 27.7867 43.837 25.235Z" fill="#F9DCA4"/>
<path fill-rule="evenodd" clip-rule="evenodd" d="M30.733 11.361C51.256 11.361 43.258 43.807 30.733 43.807C18.903 43.807 10.21 11.361 30.733 11.361Z" fill="#FFE8BE"/>
<path fill-rule="evenodd" clip-rule="evenodd" d="M21.047 22.105C21.2221 22.2969 21.3519 22.5256 21.427 22.7743C21.502 23.023 21.5204 23.2854 21.4806 23.5421C21.4409 23.7988 21.3442 24.0434 21.1975 24.2578C21.0508 24.4722 20.8579 24.651 20.633 24.781C19.183 25.974 19.13 30.134 19.13 30.134C18.57 29.578 18.583 26.6 17.369 24.879C16.155 23.158 15.337 11.116 22.126 6.737C21.7088 7.2277 21.4082 7.8065 21.2466 8.42998C21.085 9.05346 21.0667 9.70543 21.193 10.337C21.193 10.337 25.909 3.574 33.733 3.769C33.1127 4.10721 32.5707 4.57232 32.1422 5.13402C31.7137 5.69572 31.4083 6.3414 31.246 7.029C31.246 7.029 38.086 4.207 43.786 7.564C42.3041 7.9736 40.9025 8.63197 39.641 9.511C42.409 9.587 45.084 10.101 47.101 11.895C46.6669 12.0344 46.2652 12.2593 45.9195 12.5566C45.5738 12.8538 45.2912 13.2173 45.0883 13.6256C44.8855 14.0339 44.7665 14.4787 44.7385 14.9338C44.7104 15.3888 44.7738 15.8449 44.925 16.275C45.781 19.778 45.861 23.037 45.032 24.789C44.203 26.541 43.812 25.41 43.293 29.084C43.2676 29.3322 43.1848 29.5711 43.0511 29.7818C42.9175 29.9925 42.7367 30.1692 42.523 30.298C42.503 30.564 42.905 26.542 41.868 25.471C40.832 24.401 41.483 23.086 41.897 22.308C44.787 16.881 36.132 14.422 31.401 14.428C27.298 14.433 17.401 16.298 21.047 22.105Z" fill="#8A5C42"/>
<path fill-rule="evenodd" clip-rule="evenodd" d="M19.79 49.162C19.82 49.2 30.208 62.645 42.42 48.962C40.945 53.014 34.583 56.232 30.944 56.222C23.994 56.202 20.148 50.622 19.79 49.162Z" fill="#434955"/>
<path fill-rule="evenodd" clip-rule="evenodd" d="M36.336 61.323C35.926 61.395 35.514 61.458 35.099 61.515V52.578C35.1142 52.4283 35.1874 52.2905 35.3029 52.1941C35.4184 52.0977 35.567 52.0503 35.717 52.062C35.8672 52.05 36.016 52.0973 36.1318 52.1937C36.2475 52.2902 36.3208 52.4281 36.336 52.578V61.323ZM26.516 61.489C26.1013 61.4297 25.689 61.363 25.279 61.289V52.578C25.2942 52.4283 25.3674 52.2905 25.4829 52.1941C25.5984 52.0977 25.747 52.0503 25.897 52.062C26.0473 52.0497 26.1965 52.0969 26.3124 52.1934C26.4283 52.2898 26.5018 52.4279 26.517 52.578L26.516 61.489Z" fill="#E6E6E6"/>
</g>
<defs>
<clipPath id="clip0_4_145">
<rect width="61.8" height="61.8" fill="white"/>
</clipPath>
</defs>
</svg>
