<svg width="62" height="62" viewBox="0 0 62 62" fill="none" xmlns="http://www.w3.org/2000/svg">
<g clip-path="url(#clip0_4_158)">
<path d="M30.9 61.8C47.9656 61.8 61.8 47.9656 61.8 30.9C61.8 13.8344 47.9656 0 30.9 0C13.8344 0 0 13.8344 0 30.9C0 47.9656 13.8344 61.8 30.9 61.8Z" fill="#58B0E0"/>
<path fill-rule="evenodd" clip-rule="evenodd" d="M23.255 38.68L39.162 38.801V51.719L23.255 51.598V38.68Z" fill="#F9DCA4"/>
<path fill-rule="evenodd" clip-rule="evenodd" d="M43.971 58.905C39.9276 60.7881 35.5251 61.7756 31.0648 61.7997C26.6045 61.8239 22.1915 60.8842 18.128 59.045V48.417H43.97L43.971 58.905Z" fill="#E6E6E6"/>
<path fill-rule="evenodd" clip-rule="evenodd" d="M33.403 61.7C32.5777 61.766 31.7433 61.7993 30.9 61.8C30.2633 61.8 29.6317 61.781 29.005 61.743L30.035 52.755H32.445L33.403 61.7Z" fill="#E9573E"/>
<path fill-rule="evenodd" clip-rule="evenodd" d="M25.657 61.332C22.2501 60.6975 18.9599 59.5469 15.9 57.92C12.961 56.2845 10.3074 54.1821 8.043 51.695L9.327 48.595L23.252 42.383C23.252 47.595 24.963 55.864 25.657 61.332Z" fill="#677079"/>
<path opacity="0.11" fill-rule="evenodd" clip-rule="evenodd" d="M39.165 38.759V41.99C34.433 47.517 25.392 46.735 23.365 38.578L39.165 38.759Z" fill="black"/>
<path fill-rule="evenodd" clip-rule="evenodd" d="M31.129 8.43201C52.41 8.43201 44.116 43.698 31.129 43.698C18.862 43.698 9.84801 8.43201 31.129 8.43201Z" fill="#FFE8BE"/>
<path fill-rule="evenodd" clip-rule="evenodd" d="M18.365 24.046C15.295 25.385 17.905 31.732 19.837 31.704C19.0356 29.2206 18.5413 26.6495 18.365 24.046ZM44.14 24.045C47.21 25.384 44.6 31.732 42.669 31.703C43.4697 29.2199 43.9637 26.6481 44.14 24.045Z" fill="#F9DCA4"/>
<path fill-rule="evenodd" clip-rule="evenodd" d="M21.931 14.328C18.597 17.786 19.77 27.358 19.77 27.358L18.72 26.863C12.166 1.469 50.354 1.468 43.763 26.863L42.713 27.358C42.713 27.358 43.887 17.786 40.553 14.328C36.434 18.323 26.027 18.302 21.931 14.328Z" fill="#464449"/>
<path fill-rule="evenodd" clip-rule="evenodd" d="M36.767 61.243C43.5243 59.938 49.6516 56.4119 54.175 51.225L53.085 48.594L39.161 42.382C39.161 47.594 37.461 55.775 36.767 61.243Z" fill="#677079"/>
<path fill-rule="evenodd" clip-rule="evenodd" d="M39.162 41.98L31.236 48.445L37.809 54.358C37.809 54.358 39.561 44.654 39.162 41.98Z" fill="white"/>
<path fill-rule="evenodd" clip-rule="evenodd" d="M23.253 41.98L31.242 48.445L24.597 54.358C24.597 54.358 22.851 44.654 23.253 41.98Z" fill="white"/>
<path fill-rule="evenodd" clip-rule="evenodd" d="M28.109 51.227L31.246 48.409L34.383 51.227L31.246 54.044L28.109 51.227Z" fill="#E9573E"/>
<path fill-rule="evenodd" clip-rule="evenodd" d="M25.767 61.373C24.4901 61.1593 23.2279 60.8654 21.988 60.493C21.9491 60.4631 21.9111 60.4321 21.874 60.4L18.339 54.01L22.88 50.75H18.128L19.145 43.899L23.255 41.3C23.433 48.67 25.014 56.956 25.767 61.373ZM36.645 61.266C37.233 61.168 37.815 61.032 38.392 60.882C39.0735 60.7016 39.7516 60.5086 40.426 60.303L40.56 60.26L44.071 53.945L39.53 50.703H44.282L43.265 43.886L39.155 41.3C38.977 48.632 37.397 56.871 36.645 61.266Z" fill="#434955"/>
</g>
<defs>
<clipPath id="clip0_4_158">
<rect width="61.8" height="61.8" fill="white"/>
</clipPath>
</defs>
</svg>
