<svg width="62" height="62" viewBox="0 0 62 62" fill="none" xmlns="http://www.w3.org/2000/svg">
<g clip-path="url(#clip0_4_376)">
<path d="M30.9 61.8C47.9656 61.8 61.8 47.9656 61.8 30.9C61.8 13.8344 47.9656 0 30.9 0C13.8344 0 0 13.8344 0 30.9C0 47.9656 13.8344 61.8 30.9 61.8Z" fill="#FFC200"/>
<path fill-rule="evenodd" clip-rule="evenodd" d="M24.861 39.625L37.162 39.741V52.03L24.861 51.914V39.625Z" fill="#F9DCA4"/>
<path opacity="0.11" fill-rule="evenodd" clip-rule="evenodd" d="M37.164 39.719V43.125C37.177 43.5141 37.164 43.9036 37.125 44.291C37.072 44.706 35.811 44.227 35.661 44.679C31.318 48.203 25.418 43.939 24.861 41.296L37.164 39.719Z" fill="black"/>
<path fill-rule="evenodd" clip-rule="evenodd" d="M30.935 10.85C51.18 10.85 43.29 44.399 30.935 44.399C19.265 44.399 10.69 10.85 30.935 10.85Z" fill="#FFE8BE"/>
<path fill-rule="evenodd" clip-rule="evenodd" d="M18.815 25.834C15.999 27.063 18.393 32.884 20.165 32.858C19.4302 30.5805 18.9768 28.2217 18.815 25.834ZM43.309 25.806C46.124 27.034 43.759 32.884 41.989 32.858C42.7143 30.5698 43.1576 28.2016 43.309 25.806Z" fill="#F9DCA4"/>
<path fill-rule="evenodd" clip-rule="evenodd" d="M30.92 11.073C39.218 11.073 42.695 16.973 42.908 23.789C43.2 33.121 37.51 44.176 30.921 44.176C24.681 44.176 18.834 32.743 19.189 23.316C19.437 16.701 22.817 11.074 30.921 11.074L30.92 11.073Z" fill="#FFE8BE"/>
<path fill-rule="evenodd" clip-rule="evenodd" d="M19.573 30.206C19.573 30.206 19.79 21.624 27.503 21.298C35.216 20.972 36.846 16.844 36.846 16.844C38.447 20.2095 40.6468 23.2558 43.338 25.834C49.144 14.914 38.368 9.45599 38.368 9.45599C38.368 9.45599 38.603 3.10899 30.763 3.20999C22.923 3.31099 24.244 9.88999 24.244 9.88999C24.244 9.88999 12.402 16.3 19.573 30.206Z" fill="#969696"/>
<path fill-rule="evenodd" clip-rule="evenodd" d="M52.797 52.701C52.313 51.579 51.01 48.85 49.975 48.201C45.577 45.445 41.889 45.046 37.162 42.901C37.4 53.715 25.107 53.573 24.86 42.607C19.886 44.841 15.293 46.07 10.632 48.9C9.68401 49.476 9.12401 51.375 8.71701 52.408C11.5732 55.3545 14.9878 57.7025 18.7614 59.3148C22.535 60.9272 26.592 61.7717 30.6956 61.799C34.7991 61.8262 38.867 61.0358 42.6617 59.4737C46.4564 57.9116 49.9019 55.6093 52.797 52.701Z" fill="#434955"/>
<path fill-rule="evenodd" clip-rule="evenodd" d="M24.846 42.614L31.075 50.922C27.145 58.202 19.31 56.412 17.541 45.21C21.849 43.57 24.846 42.614 24.846 42.614Z" fill="white"/>
<path fill-rule="evenodd" clip-rule="evenodd" d="M20.793 26.956H29.611C29.7258 26.956 29.8361 27.0008 29.9183 27.081C30.0005 27.1611 30.0481 27.2702 30.051 27.385C30.0729 27.6541 30.0759 27.9244 30.06 28.194H31.74C31.7242 27.9241 31.7272 27.6535 31.749 27.384C31.7521 27.2694 31.7998 27.1605 31.882 27.0806C31.9642 27.0007 32.0743 26.956 32.189 26.956H41.007C41.0648 26.956 41.122 26.9674 41.1754 26.9895C41.2288 27.0116 41.2773 27.044 41.3181 27.0849C41.359 27.1257 41.3914 27.1742 41.4135 27.2276C41.4356 27.281 41.447 27.3382 41.447 27.396C41.447 27.41 41.517 32.551 36.355 32.551C33.393 32.551 32.311 30.873 31.929 29.423H29.87C29.488 30.873 28.406 32.551 25.443 32.551C20.282 32.551 20.353 27.411 20.353 27.396C20.353 27.2795 20.3992 27.1677 20.4815 27.0852C20.5638 27.0027 20.6765 26.9563 20.793 26.956Z" fill="#E6E6E6"/>
<path fill-rule="evenodd" clip-rule="evenodd" d="M37.188 42.614L31.048 50.922C34.92 58.202 42.643 56.412 44.388 45.21C40.141 43.57 37.188 42.614 37.188 42.614Z" fill="white"/>
<path fill-rule="evenodd" clip-rule="evenodd" d="M20.793 26.956H29.611C29.7258 26.956 29.8361 27.0008 29.9183 27.081C30.0005 27.1611 30.0481 27.2702 30.051 27.385C30.0729 27.6541 30.0759 27.9244 30.06 28.194H31.74C31.7242 27.9241 31.7272 27.6535 31.749 27.384C31.7521 27.2694 31.7998 27.1605 31.882 27.0806C31.9642 27.0007 32.0743 26.956 32.189 26.956H41.007C41.0648 26.956 41.122 26.9674 41.1754 26.9895C41.2288 27.0116 41.2773 27.044 41.3181 27.0849C41.359 27.1257 41.3914 27.1742 41.4135 27.2276C41.4356 27.281 41.447 27.3382 41.447 27.396C41.447 27.41 41.517 32.551 36.355 32.551C33.393 32.551 32.311 30.873 31.929 29.423H29.87C29.488 30.873 28.406 32.551 25.443 32.551C20.282 32.551 20.353 27.411 20.353 27.396C20.353 27.2795 20.3992 27.1677 20.4815 27.0852C20.5638 27.0027 20.6765 26.9563 20.793 26.956ZM40.54 27.836H32.606C32.5554 28.3449 32.6169 28.8586 32.7863 29.3411C32.9556 29.8236 33.2286 30.2632 33.586 30.6289C33.9435 30.9945 34.3768 31.2774 34.8553 31.4576C35.3339 31.6379 35.8461 31.711 36.356 31.672C36.8838 31.6998 37.4119 31.6221 37.9094 31.4435C38.4068 31.2648 38.8637 30.9888 39.2533 30.6316C39.6428 30.2743 39.9572 29.843 40.1782 29.3628C40.3991 28.8827 40.5221 28.3633 40.54 27.835V27.836ZM29.193 27.836H21.26C21.278 28.3642 21.4011 28.8835 21.6221 29.3635C21.8431 29.8436 22.1575 30.2748 22.5471 30.6319C22.9366 30.9891 23.3934 31.265 23.8908 31.4436C24.3882 31.6222 24.9162 31.6998 25.444 31.672C25.954 31.7111 26.4663 31.6379 26.9449 31.4576C27.4235 31.2773 27.8569 30.9943 28.2143 30.6285C28.5718 30.2628 28.8448 29.8231 29.0141 29.3404C29.1833 28.8578 29.2447 28.3439 29.194 27.835L29.193 27.836Z" fill="#434955"/>
<path d="M31.04 56.507C31.5034 56.507 31.879 56.1313 31.879 55.668C31.879 55.2046 31.5034 54.829 31.04 54.829C30.5766 54.829 30.201 55.2046 30.201 55.668C30.201 56.1313 30.5766 56.507 31.04 56.507Z" fill="#E6E6E6"/>
<path d="M31.04 59.626C31.5034 59.626 31.879 59.2504 31.879 58.787C31.879 58.3236 31.5034 57.948 31.04 57.948C30.5766 57.948 30.201 58.3236 30.201 58.787C30.201 59.2504 30.5766 59.626 31.04 59.626Z" fill="#E6E6E6"/>
</g>
<defs>
<clipPath id="clip0_4_376">
<rect width="61.8" height="61.8" fill="white"/>
</clipPath>
</defs>
</svg>
