<svg width="62" height="62" viewBox="0 0 62 62" fill="none" xmlns="http://www.w3.org/2000/svg">
<g clip-path="url(#clip0_4_176)">
<path fill-rule="evenodd" clip-rule="evenodd" d="M31.129 8.43201C52.41 8.43201 44.116 43.698 31.129 43.698C18.863 43.698 9.848 8.43201 31.129 8.43201Z" fill="#FFE8BE"/>
<path d="M30.9 61.8C47.9656 61.8 61.8 47.9656 61.8 30.9C61.8 13.8344 47.9656 0 30.9 0C13.8344 0 0 13.8344 0 30.9C0 47.9656 13.8344 61.8 30.9 61.8Z" fill="#58B0E0"/>
<path fill-rule="evenodd" clip-rule="evenodd" d="M45.487 19.987L16.314 20.162C16.314 20.162 17.362 36.31 13.695 41.372H49.396C48.476 40.022 46.043 39.587 45.487 19.987Z" fill="#60350A"/>
<path fill-rule="evenodd" clip-rule="evenodd" d="M18.135 45.599L25.341 42.412L36.891 42.112L44.311 46.009L38.954 57.224L31.341 61.312L23.466 56.962L18.135 45.599Z" fill="#D5E1ED"/>
<path fill-rule="evenodd" clip-rule="evenodd" d="M24.744 38.68L37.675 38.764V47.713L24.744 47.628V38.68Z" fill="#F9DCA4"/>
<path opacity="0.11" fill-rule="evenodd" clip-rule="evenodd" d="M37.677 38.778V42.358C37.691 42.7671 37.6777 43.1767 37.637 43.584C37.5767 44.0356 37.4719 44.4801 37.324 44.911C32.954 49.076 25.945 45.691 24.834 38.578L37.677 38.778Z" fill="black"/>
<path fill-rule="evenodd" clip-rule="evenodd" d="M52.797 52.701C49.9019 55.6093 46.4564 57.9116 42.6617 59.4737C38.867 61.0358 34.7991 61.8263 30.6955 61.799C26.592 61.7717 22.535 60.9272 18.7614 59.3148C14.9878 57.7025 11.5732 55.3545 8.717 52.408L9.93799 49.31L19.041 45.188C22.303 51.168 25.851 56.712 31.358 60.643C36.343 56.4936 40.381 51.3243 43.2 45.483L51.344 49.336L52.797 52.701Z" fill="#434955"/>
<path fill-rule="evenodd" clip-rule="evenodd" d="M19.11 24.183C16.152 25.473 18.668 31.593 20.53 31.566C19.7574 29.1721 19.2805 26.6927 19.11 24.183ZM43.507 24.182C46.467 25.474 43.95 31.593 42.088 31.566C42.8605 29.1718 43.337 26.692 43.507 24.182Z" fill="#F9DCA4"/>
<path fill-rule="evenodd" clip-rule="evenodd" d="M31.114 8.666C39.836 8.666 43.491 14.866 43.715 22.033C44.022 31.843 38.04 43.463 31.115 43.463C24.555 43.463 18.409 31.445 18.782 21.535C19.042 14.582 22.596 8.666 31.114 8.666Z" fill="#FFE8BE"/>
<path fill-rule="evenodd" clip-rule="evenodd" d="M33.399 24.983C34.9615 24.0285 36.8182 23.6755 38.622 23.99H38.627C43.781 24.62 43.861 26.222 43.36 26.591C43.0246 26.8681 42.7563 27.2175 42.575 27.613C42.463 28.6571 42.1023 29.6591 41.523 30.535C41.1372 31.1393 40.6301 31.6568 40.0338 32.0548C39.4375 32.4528 38.765 32.7226 38.059 32.847C37.891 32.874 37.719 32.895 37.543 32.905C36.8549 32.9543 36.165 32.8391 35.5303 32.5689C34.8956 32.2986 34.3344 31.8812 33.893 31.351C33.2547 30.6016 32.7543 29.745 32.415 28.821V28.824C32.415 28.824 31.618 27.188 30.343 28.71C30.0005 29.6748 29.4855 30.5694 28.823 31.35C28.3815 31.8804 27.8202 32.298 27.1853 32.5684C26.5504 32.8388 25.8603 32.9542 25.172 32.905C24.9991 32.8942 24.8269 32.8748 24.656 32.847C23.95 32.7225 23.2775 32.4527 22.6812 32.0548C22.0849 31.6568 21.5778 31.1392 21.192 30.535C20.6129 29.6594 20.2522 28.6577 20.14 27.614C19.9674 27.2172 19.7036 26.8667 19.37 26.591C18.87 26.221 18.945 24.618 24.099 23.988H24.101C25.9124 23.6751 27.7757 24.0342 29.341 24.998L29.34 24.997L29.343 24.999L29.558 25.13C30.1574 25.4365 30.8256 25.5838 31.4983 25.5579C32.1711 25.532 32.8259 25.3337 33.4 24.982L33.399 24.983ZM28.727 25.621C27.7976 25.0842 26.752 24.7808 25.6796 24.7367C24.6073 24.6927 23.5403 24.9093 22.57 25.368C21.059 26.054 20.598 26.538 21.184 28.531C21.3427 29.0746 21.5828 29.5911 21.896 30.063C22.2495 30.6381 22.7363 31.1197 23.3152 31.467C23.8941 31.8142 24.5482 32.0169 25.222 32.058C25.7818 32.0965 26.3428 32.0013 26.8586 31.7801C27.3743 31.5589 27.83 31.2182 28.188 30.786C28.7808 30.0847 29.2416 29.2817 29.548 28.416C30.227 26.636 30.41 26.553 28.728 25.621H28.727ZM39.674 25.171C38.7147 24.8106 37.6857 24.6742 36.6656 24.7721C35.6455 24.87 34.6613 25.1997 33.788 25.736C32.25 26.647 32.53 26.799 33.21 28.526C33.5125 29.3508 33.958 30.1158 34.526 30.786C34.8841 31.2183 35.3399 31.5591 35.8559 31.7803C36.3718 32.0015 36.933 32.0967 37.493 32.058C37.6371 32.0493 37.7806 32.0333 37.923 32.01C38.5142 31.9035 39.0768 31.6755 39.5753 31.3404C40.0738 31.0052 40.4973 30.5703 40.819 30.063C41.1146 29.6181 41.3449 29.1332 41.503 28.623C42.205 26.373 41.579 25.872 39.675 25.172L39.674 25.171Z" fill="#464449"/>
<path fill-rule="evenodd" clip-rule="evenodd" d="M17.89 25.608C17.89 24.97 18.874 24.722 19.488 28.551C19.9838 26.987 20.3045 25.3728 20.444 23.738C21.606 23.963 22.722 26.586 22.371 28.886C25.537 28.109 33.674 23.199 36.32 16.562C43.092 20.463 43.055 28.656 43.055 28.656C43.055 28.656 43.413 26.756 43.613 25.14C43.679 24.602 43.906 24.407 44.411 24.927C48.073 17.343 42.3 5.75001 31.297 5.57001C16.189 5.32401 14.267 21.684 17.891 25.609L17.89 25.608Z" fill="#8A5C42"/>
<path fill-rule="evenodd" clip-rule="evenodd" d="M24.765 42.431C26.345 44.7855 28.597 46.6099 31.228 47.667L27.02 53.811L21.103 44.031L24.765 42.431Z" fill="white"/>
<path fill-rule="evenodd" clip-rule="evenodd" d="M37.682 42.431C36.102 44.7854 33.85 46.6099 31.219 47.667L35.428 53.811L41.381 44.143L37.682 42.431Z" fill="white"/>
<path d="M31.223 53.401C31.6864 53.401 32.062 53.0254 32.062 52.562C32.062 52.0986 31.6864 51.723 31.223 51.723C30.7596 51.723 30.384 52.0986 30.384 52.562C30.384 53.0254 30.7596 53.401 31.223 53.401Z" fill="#434955"/>
<path d="M31.223 57.13C31.6864 57.13 32.062 56.7544 32.062 56.291C32.062 55.8276 31.6864 55.452 31.223 55.452C30.7596 55.452 30.384 55.8276 30.384 56.291C30.384 56.7544 30.7596 57.13 31.223 57.13Z" fill="#434955"/>
<path fill-rule="evenodd" clip-rule="evenodd" d="M41.997 24.737C43.781 25.449 43.716 26.318 43.364 26.578C43.0286 26.8551 42.7603 27.2045 42.579 27.6C42.5009 28.3226 42.3042 29.0273 41.997 29.686V24.737ZM20.528 29.216C20.3327 28.6959 20.2037 28.1533 20.144 27.601C19.9715 27.2041 19.7076 26.8536 19.374 26.578C19.037 26.329 18.961 25.518 20.528 24.824V29.216Z" fill="#464449"/>
</g>
<defs>
<clipPath id="clip0_4_176">
<rect width="61.8" height="61.8" fill="white"/>
</clipPath>
</defs>
</svg>
