<svg width="62" height="62" viewBox="0 0 62 62" fill="none" xmlns="http://www.w3.org/2000/svg">
<g clip-path="url(#clip0_4_411)">
<path d="M30.9 61.8C47.9656 61.8 61.8 47.9656 61.8 30.9C61.8 13.8344 47.9656 0 30.9 0C13.8344 0 0 13.8344 0 30.9C0 47.9656 13.8344 61.8 30.9 61.8Z" fill="#E9573E"/>
<path fill-rule="evenodd" clip-rule="evenodd" d="M23.366 38.578L39.162 38.801V51.719L23.255 51.598L23.366 38.578Z" fill="#F9DCA4"/>
<path fill-rule="evenodd" clip-rule="evenodd" d="M53.478 51.993C50.5906 55.0916 47.0955 57.5616 43.2108 59.249C39.3261 60.9363 35.1353 61.8047 30.9 61.8C29.6173 61.7999 28.3359 61.7207 27.063 61.563C23.1591 61.0036 19.382 59.7706 15.9 57.919C12.9613 56.2834 10.308 54.181 8.044 51.694L9.327 48.594L23.252 42.382C23.877 46.105 31.066 50.557 31.066 50.557C31.066 50.557 38.286 47.145 39.162 42.346L51.952 48.627L53.478 51.993Z" fill="#58B0E0"/>
<path opacity="0.11" fill-rule="evenodd" clip-rule="evenodd" d="M39.165 38.778V42.358C39.122 42.497 39.091 42.682 39.03 42.904C38.9626 43.1376 38.8814 43.367 38.787 43.591C38.617 44 37.442 43.654 37.219 44.006C31.844 48.17 25.231 44.874 23.364 38.761L39.165 38.778Z" fill="black"/>
<path fill-rule="evenodd" clip-rule="evenodd" d="M31.129 8.43201C52.41 8.43201 44.116 43.698 31.129 43.698C18.863 43.698 9.848 8.43201 31.129 8.43201Z" fill="#FFE8BE"/>
<path fill-rule="evenodd" clip-rule="evenodd" d="M18.365 24.045C15.295 25.385 17.905 31.732 19.837 31.703C19.0357 29.2199 18.5414 26.6481 18.365 24.045ZM44.14 24.045C47.21 25.384 44.6 31.732 42.669 31.703C43.4698 29.2198 43.9638 26.6481 44.14 24.045Z" fill="#F9DCA4"/>
<path fill-rule="evenodd" clip-rule="evenodd" d="M18.7 26.997C18.7 26.997 15.42 25.241 16.358 18.991C17.296 12.741 22.471 9.55203 24.383 10.021C20.8661 15.0009 18.8899 20.9034 18.7 26.997ZM43.84 26.997C43.84 26.997 47.12 25.241 46.183 18.991C45.246 12.741 40.061 9.69103 38.149 10.161C41.6746 15.084 43.655 20.9446 43.84 26.997Z" fill="#969696"/>
<path fill-rule="evenodd" clip-rule="evenodd" d="M23.255 41.241L31.066 50.557L24.754 54.11L19.926 43.519L23.255 41.241ZM39.162 41.421L31.066 50.557L37.59 54.11L42.372 43.391L39.162 41.421Z" fill="#434955"/>
<path fill-rule="evenodd" clip-rule="evenodd" d="M31.128 35.672C29.518 37.699 23.461 38.449 23.243 34.813C24.655 35.463 25.838 35.31 27.937 33.63C30.037 31.951 31.147 33.935 31.147 33.935C31.147 33.935 32.33 31.951 34.43 33.63C36.529 35.31 37.712 35.462 39.124 34.813C38.906 38.449 32.738 37.699 31.128 35.672Z" fill="#969696"/>
<path d="M26.199 30.744C27.9591 30.744 29.386 29.3171 29.386 27.557C29.386 25.7969 27.9591 24.37 26.199 24.37C24.4389 24.37 23.012 25.7969 23.012 27.557C23.012 29.3171 24.4389 30.744 26.199 30.744Z" fill="#E6E6E6"/>
<path fill-rule="evenodd" clip-rule="evenodd" d="M36.293 30.297C37.975 29.749 37.675 29.951 37.341 30.089C35.923 30.297 35.568 30.222 35.245 30.089C35.5773 30.2263 35.9334 30.297 36.293 30.297ZM43.818 26.235L40 26.998L39.89 27.023L39.87 26.913C39.805 26.5513 39.6853 26.2017 39.515 25.876C39.3434 25.5487 39.1233 25.2493 38.862 24.988L38.785 24.912C38.4636 24.6089 38.0899 24.3667 37.682 24.197C36.7915 23.831 35.7925 23.831 34.902 24.197C34.3159 24.4395 33.8035 24.831 33.4154 25.3327C33.0274 25.8344 32.7773 26.4288 32.69 27.057L32.677 27.15H29.812L29.8 27.057C29.7461 26.6687 29.6292 26.2918 29.454 25.941C29.2782 25.5884 29.0466 25.2666 28.768 24.988L28.692 24.912C28.1818 24.4322 27.5441 24.1096 26.8553 23.9827C26.1664 23.8559 25.4556 23.9303 24.808 24.197C24.2465 24.4293 23.7522 24.7986 23.3701 25.2711C22.9881 25.7436 22.7306 26.3043 22.621 26.902L22.601 27.013L22.491 26.988L18.718 26.23L18.68 26.987L22.558 28.177L22.618 28.197L22.63 28.257C22.7623 28.9352 23.0857 29.5615 23.562 30.062L23.628 30.128C23.9665 30.4661 24.3681 30.7345 24.81 30.918C25.6989 31.285 26.6969 31.2854 27.586 30.919C28.0275 30.7354 28.4288 30.467 28.767 30.129L28.768 30.128L28.769 30.127C29.3165 29.5807 29.675 28.8736 29.792 28.109L29.806 28.017H32.684L32.698 28.109C32.7553 28.4886 32.8728 28.8565 33.046 29.199C33.206 29.5136 33.4108 29.8032 33.654 30.059L33.722 30.128C34.0605 30.4662 34.4621 30.7346 34.904 30.918C35.7929 31.285 36.7909 31.2854 37.68 30.919C38.1212 30.7353 38.5221 30.4669 38.86 30.129L38.862 30.128C39.1146 29.8752 39.3289 29.5859 39.498 29.271C39.6661 28.9582 39.787 28.6222 39.857 28.274L39.869 28.213L39.929 28.193L43.839 26.998L43.817 26.237L43.818 26.235ZM27.247 25.025C27.5656 25.1575 27.8563 25.3488 28.104 25.589H28.106L28.138 25.62C28.6516 26.1338 28.9401 26.8306 28.9401 27.557C28.9401 28.2835 28.6516 28.9802 28.138 29.494L28.136 29.496C27.6222 30.0093 26.9257 30.2976 26.1995 30.2976C25.4733 30.2976 24.7768 30.0093 24.263 29.496L24.231 29.464V29.462C23.9911 29.214 23.8001 28.9229 23.668 28.604C23.3909 27.9335 23.3909 27.1805 23.668 26.51C23.9464 25.8382 24.4802 25.3044 25.152 25.026C25.8228 24.7487 26.5762 24.7477 27.247 25.025ZM38.154 25.697C38.0059 25.5491 37.8407 25.4191 37.662 25.31C37.263 25.0671 36.8065 24.9347 36.3394 24.9264C35.8723 24.9182 35.4114 25.0344 35.004 25.263C34.8269 25.3628 34.6618 25.4826 34.512 25.62C34.4235 25.7006 34.341 25.7875 34.265 25.88C34.1071 26.0708 33.9768 26.2829 33.878 26.51C33.8405 26.5955 33.8078 26.6829 33.78 26.772C33.7007 27.0261 33.6606 27.2908 33.661 27.557C33.661 27.643 33.666 27.729 33.674 27.814C33.7002 28.0864 33.7691 28.353 33.878 28.604C33.9131 28.6857 33.9525 28.7655 33.996 28.843C34.1143 29.0537 34.261 29.2472 34.432 29.418V29.42L34.475 29.462L34.495 29.48L34.512 29.496C34.5941 29.5714 34.681 29.6416 34.772 29.706C34.9832 29.8565 35.2158 29.9745 35.462 30.056C35.9255 30.2089 36.4223 30.2305 36.8973 30.1182C37.3724 30.0059 37.807 29.7643 38.153 29.42L38.156 29.418L38.206 29.366C38.6762 28.8678 38.934 28.206 38.9247 27.5209C38.9153 26.8358 38.6396 26.1813 38.156 25.696L38.154 25.697Z" fill="#434955"/>
<path d="M36.293 30.312C37.8145 30.312 39.048 29.0785 39.048 27.557C39.048 26.0355 37.8145 24.802 36.293 24.802C34.7715 24.802 33.538 26.0355 33.538 27.557C33.538 29.0785 34.7715 30.312 36.293 30.312Z" fill="#E6E6E6"/>
<path d="M26.199 30.312C27.7205 30.312 28.954 29.0785 28.954 27.557C28.954 26.0355 27.7205 24.802 26.199 24.802C24.6775 24.802 23.444 26.0355 23.444 27.557C23.444 29.0785 24.6775 30.312 26.199 30.312Z" fill="#E6E6E6"/>
</g>
<defs>
<clipPath id="clip0_4_411">
<rect width="61.8" height="61.8" fill="white"/>
</clipPath>
</defs>
</svg>
