<svg width="62" height="62" viewBox="0 0 62 62" fill="none" xmlns="http://www.w3.org/2000/svg">
<g clip-path="url(#clip0_4_265)">
<path d="M30.9 61.8C47.9656 61.8 61.8 47.9656 61.8 30.9C61.8 13.8344 47.9656 0 30.9 0C13.8344 0 0 13.8344 0 30.9C0 47.9656 13.8344 61.8 30.9 61.8Z" fill="#58B0E0"/>
<path fill-rule="evenodd" clip-rule="evenodd" d="M23.255 38.68L39.162 38.826V54.428L23.255 54.281V38.68Z" fill="#302E33"/>
<path fill-rule="evenodd" clip-rule="evenodd" d="M53.478 51.993C50.5907 55.0916 47.0956 57.5617 43.2109 59.2491C39.3262 60.9364 35.1353 61.8048 30.9 61.8C29.6173 61.7999 28.3359 61.7207 27.063 61.563C23.1592 61.0035 19.3821 59.7706 15.9 57.919C12.961 56.2834 10.3074 54.181 8.043 51.694L9.327 48.594L23.252 42.382C23.252 46.917 24.562 52.402 30.691 52.495C38.261 52.608 39.161 47.02 39.161 42.345L51.951 48.627L53.478 51.993Z" fill="#857A6E"/>
<path fill-rule="evenodd" clip-rule="evenodd" d="M31.462 52.495C28.12 47.023 22.074 46.208 20.103 45.895C14.683 45.035 5.543 41.615 11.539 36.175C22.304 26.411 18.437 14.143 31.052 14.143C44.522 14.143 39.925 26.411 50.69 36.175C56.687 41.615 47.547 45.035 42.125 45.895C39.9629 46.1121 37.8787 46.8194 36.031 47.9631C34.1833 49.1067 32.6207 50.6567 31.462 52.495Z" fill="#302E33"/>
<path opacity="0.18" fill-rule="evenodd" clip-rule="evenodd" d="M39.964 42.252C38.839 46.262 35.956 48.649 31.366 48.459C27.426 48.296 24.069 46.062 23.256 42.255L39.964 42.252Z" fill="black"/>
<path fill-rule="evenodd" clip-rule="evenodd" d="M31.129 8.43201C52.41 8.43201 44.116 43.698 31.129 43.698C18.862 43.698 9.84801 8.43201 31.129 8.43201Z" fill="#FFE8BE"/>
<path fill-rule="evenodd" clip-rule="evenodd" d="M18.365 24.045C15.295 25.385 17.905 31.732 19.837 31.703C19.0357 29.22 18.5414 26.6482 18.365 24.045ZM44.14 24.045C47.21 25.384 44.6 31.732 42.669 31.703C43.4698 29.2199 43.9638 26.6481 44.14 24.045Z" fill="#F9DCA4"/>
<path fill-rule="evenodd" clip-rule="evenodd" d="M19.113 25.706C16.283 20.748 16.33 16.331 17.751 13.889C19.799 10.369 22.673 10.201 23.066 9.372C27.091 0.893004 47.905 7.32401 47.036 20.462C46.6117 19.5853 46.1019 18.7526 45.514 17.976C45.514 17.976 45.439 22.967 44.077 24.933C42.437 25.397 29.016 25.172 24.024 14.985C20.018 17.253 18.964 22 19.114 25.705L19.113 25.706Z" fill="#969696"/>
<path fill-rule="evenodd" clip-rule="evenodd" d="M31.15 46.543C28.49 46.565 15.533 42.521 18.54 20.498C18.54 20.498 19.19 30.414 21.315 33.286C22.697 35.154 23.94 35.856 25.135 34.032C26.383 32.132 29.081 30.559 31.173 32.355C32.91 30.505 36.021 32.143 37.257 34.032C38.452 35.855 39.697 35.155 41.079 33.286C43.204 30.414 43.665 20.83 43.665 20.83C47.121 44.43 33.81 46.565 31.15 46.543Z" fill="#969696"/>
<path fill-rule="evenodd" clip-rule="evenodd" d="M26.527 36.802C27.7442 35.5711 29.3681 34.826 31.095 34.706C32.7955 34.8568 34.3891 35.5997 35.598 36.805C34.81 37.33 29.724 38.542 26.527 36.802Z" fill="#FFE8BE"/>
<path fill-rule="evenodd" clip-rule="evenodd" d="M26.611 51.297C24.0809 49.7219 21.3256 48.5414 18.44 47.796C13.662 47.038 5.017 46.278 7.169 37.71C12.023 18.38 18.85 3.68799 31.457 3.86999C44.293 4.05399 50.547 19.67 55.297 37.735C57.201 44.973 48.507 47.048 43.789 47.795C40.9934 48.3724 38.3437 49.5103 36 51.14C29.037 55.905 34.188 55.839 26.611 51.297ZM31.462 52.495C32.6207 50.6566 34.1833 49.1067 36.031 47.963C37.8787 46.8194 39.9629 46.1121 42.125 45.895C47.547 45.035 56.687 41.615 50.69 36.175C39.925 26.411 44.523 14.143 31.052 14.143C18.437 14.143 22.304 26.411 11.539 36.175C5.542 41.615 14.682 45.035 20.103 45.895C22.073 46.208 28.119 47.022 31.462 52.495Z" fill="#7D7062"/>
<path fill-rule="evenodd" clip-rule="evenodd" d="M24.202 50.213C24.202 50.213 30.19 53.469 31.79 58.205C33.4 53.084 39.417 49.878 39.417 49.878C39.417 49.878 33.07 52.33 31.7 55.534C30.727 53.812 28.992 52.134 24.202 50.213Z" fill="#302E33"/>
</g>
<defs>
<clipPath id="clip0_4_265">
<rect width="61.8" height="61.8" fill="white"/>
</clipPath>
</defs>
</svg>
