<svg width="62" height="62" viewBox="0 0 62 62" fill="none" xmlns="http://www.w3.org/2000/svg">
<g clip-path="url(#clip0_4_228)">
<path d="M30.9 61.8C47.9656 61.8 61.8 47.9656 61.8 30.9C61.8 13.8344 47.9656 0 30.9 0C13.8344 0 0 13.8344 0 30.9C0 47.9656 13.8344 61.8 30.9 61.8Z" fill="#E9573E"/>
<path fill-rule="evenodd" clip-rule="evenodd" d="M23.255 38.68L39.162 38.829V42.446L46.164 45.785L30.477 60.504L17.016 45.164L23.255 42.508V38.68Z" fill="#F9DCA4"/>
<path fill-rule="evenodd" clip-rule="evenodd" d="M53.478 51.993C50.5907 55.0916 47.0956 57.5617 43.2109 59.2491C39.3262 60.9364 35.1353 61.8048 30.9 61.8C29.6174 61.7999 28.3359 61.7207 27.063 61.563C23.1592 61.0036 19.3821 59.7706 15.9 57.919C12.9613 56.2834 10.3081 54.181 8.04401 51.694L9.32701 48.594L20.655 43.54C21.53 48.076 24.89 55.075 30.831 59.042C33.6097 57.3638 36.0211 55.1422 37.921 52.5102C39.8209 49.8781 41.1702 46.8898 41.888 43.724L51.951 48.627L53.478 51.993Z" fill="#677079"/>
<path opacity="0.11" fill-rule="evenodd" clip-rule="evenodd" d="M39.791 42.745C40.519 43.092 41.764 43.673 41.885 43.744C39.855 50.112 26.165 52.444 22.129 42.988L39.791 42.745Z" fill="black"/>
<path fill-rule="evenodd" clip-rule="evenodd" d="M31.129 8.43201C52.41 8.43201 44.116 43.698 31.129 43.698C18.863 43.698 9.84799 8.43201 31.129 8.43201Z" fill="#FFE8BE"/>
<path fill-rule="evenodd" clip-rule="evenodd" d="M18.365 24.045C15.295 25.385 17.905 31.732 19.837 31.703C19.0357 29.22 18.5414 26.6482 18.365 24.045ZM44.14 24.045C47.21 25.384 44.6 31.732 42.669 31.703C43.4697 29.2199 43.9637 26.6481 44.14 24.045Z" fill="#F9DCA4"/>
<path fill-rule="evenodd" clip-rule="evenodd" d="M23.396 15.437C22.804 18.205 23.012 20.957 20.388 21.465C19.764 21.585 19.351 22.43 19.216 23.175C18.9117 24.8001 18.7842 26.4534 18.836 28.106C18.94 28.675 18.44 27.014 18.44 27.014L18.355 23.84C18.355 23.84 18.318 23.232 18.332 22.305C18.362 20.425 18.576 17.377 19.528 16.445C20.949 15.055 23.396 15.437 23.396 15.437ZM39.095 15.437C39.687 18.205 39.48 20.957 42.103 21.465C42.727 21.585 43.141 22.43 43.275 23.175C43.5667 24.8068 43.6713 26.4665 43.587 28.122C43.482 28.692 43.982 27.03 43.982 27.03L44.148 23.852C44.148 23.852 44.173 23.232 44.158 22.305C44.13 20.425 43.916 17.377 42.963 16.445C41.542 15.055 39.095 15.437 39.095 15.437Z" fill="#AD835F"/>
<path fill-rule="evenodd" clip-rule="evenodd" d="M25.364 46.477C23.854 45.02 22.646 43.89 21.55 42.759C20.145 41.308 19.669 39.837 19.396 37.261C18.7764 32.8096 18.4281 28.3247 18.353 23.831C18.353 23.831 19.387 30.164 21.315 33.286C22.305 34.889 26.355 31.121 27.97 30.548C28.5191 30.2939 29.138 30.2329 29.7262 30.3749C30.3143 30.5168 30.8372 30.8534 31.21 31.33C31.576 30.8526 32.0942 30.5148 32.6786 30.3725C33.2631 30.2303 33.8786 30.2922 34.423 30.548C36.039 31.121 40.033 34.34 41.079 33.286C43.594 30.75 44.136 23.84 44.136 23.84C44.0309 28.3838 43.6539 32.9172 43.007 37.416C42.644 40.162 42.46 41.226 41.521 42.3C40.1428 43.848 38.6116 45.2528 36.951 46.493C36.123 47.149 34.684 47.765 31.018 47.743C27.612 47.723 26.215 47.298 25.364 46.477ZM39.604 15.997C40.1343 15.8943 40.6834 15.957 41.177 16.1764C41.6706 16.3958 42.0849 16.7615 42.364 17.224C43.92 19.837 44.049 20.174 44.049 20.174C44.049 20.174 43.865 15.5 43.754 14.944C43.8878 14.8208 44.0644 14.7548 44.2462 14.76C44.428 14.7652 44.6005 14.8413 44.727 14.972C44.837 15.194 44.283 10.272 41.392 9.328C40.335 6.326 36.638 4.102 36.638 4.102L36.471 5.77C36.0987 4.63763 35.4006 3.6403 34.464 2.90296C33.5275 2.16562 32.3941 1.72107 31.206 1.625C31.873 2.376 31.713 2.925 31.713 2.925C30.6725 2.4891 29.5529 2.2739 28.425 2.293C28.565 3.182 27.536 4.128 27.536 4.128C27.536 4.128 26.897 3.154 24.367 2.821C23.922 4.433 23.087 4.711 22.282 5.462C21.6057 6.15463 20.9835 6.89815 20.421 7.686C20.421 7.686 20.504 6.129 21.06 5.684C21.269 5.546 16.344 7.487 18.808 14.72C18.3666 14.7093 17.9345 14.8478 17.5815 15.1131C17.2285 15.3784 16.9754 15.755 16.863 16.182C18.253 16.571 17.678 18.672 18.456 20.034C19.003 18.454 19.365 15.376 22.784 16.182C25.232 16.759 27.582 17.996 30.404 18.095C34.391 18.234 35.905 16.141 39.604 15.997Z" fill="#60350A"/>
<path fill-rule="evenodd" clip-rule="evenodd" d="M32.415 38.594C32.8046 38.6593 33.2037 38.6406 33.5855 38.5392C33.9674 38.4378 34.3231 38.256 34.629 38.006C35.349 37.176 35.936 35.997 34.844 35.363C33.778 34.606 32.5532 34.1025 31.263 33.891C29.9651 34.099 28.7321 34.6018 27.659 35.361C26.319 36.136 27.139 37.176 27.86 38.006C28.1659 38.256 28.5217 38.4378 28.9035 38.5392C29.2853 38.6406 29.6844 38.6593 30.074 38.594C29.263 35.77 33.227 35.77 32.415 38.594Z" fill="#FFE8BE"/>
</g>
<defs>
<clipPath id="clip0_4_228">
<rect width="61.8" height="61.8" fill="white"/>
</clipPath>
</defs>
</svg>
