<svg width="62" height="63" viewBox="0 0 62 63" fill="none" xmlns="http://www.w3.org/2000/svg">
<g clip-path="url(#clip0_4_281)">
<path fill-rule="evenodd" clip-rule="evenodd" d="M31.129 8.43201C52.41 8.43201 44.117 43.698 31.129 43.698C18.863 43.698 9.848 8.43201 31.129 8.43201Z" fill="#FFE8BE"/>
<path d="M30.9 61.8C47.9656 61.8 61.8 47.9656 61.8 30.9C61.8 13.8344 47.9656 0 30.9 0C13.8344 0 0 13.8344 0 30.9C0 47.9656 13.8344 61.8 30.9 61.8Z" fill="#485A69"/>
<path fill-rule="evenodd" clip-rule="evenodd" d="M52.797 52.701C52.189 51.239 52.303 49.783 47.432 47.514C45.139 46.972 39.222 46.195 38.104 44.114C37.538 43.062 37.674 41.579 37.674 38.822L24.744 38.679C24.744 41.457 24.853 42.938 24.22 43.978C23.03 45.935 15.285 47.362 12.882 48.002C8.789 49.821 9.257 50.927 8.717 52.408C11.5732 55.3545 14.9878 57.7025 18.7614 59.3149C22.535 60.9272 26.592 61.7717 30.6956 61.799C34.7991 61.8263 38.867 61.0358 42.6617 59.4737C46.4564 57.9116 49.9019 55.6093 52.797 52.701Z" fill="#F9DCA4"/>
<path fill-rule="evenodd" clip-rule="evenodd" d="M52.797 52.701C52.221 51.317 52.292 49.938 48.171 47.871C47.9428 47.717 47.6936 47.5968 47.431 47.514C46.943 47.398 46.071 47.228 45.639 47.142C44.472 54.275 26.352 64.005 16.683 47.095C15.643 47.339 13.464 47.847 12.882 48.002C8.789 49.821 9.257 50.928 8.717 52.408C11.5732 55.3545 14.9878 57.7025 18.7614 59.3148C22.535 60.9272 26.592 61.7717 30.6956 61.799C34.7991 61.8262 38.867 61.0358 42.6617 59.4737C46.4564 57.9116 49.9019 55.6093 52.797 52.701Z" fill="#9F82BB"/>
<mask id="mask0_4_281" style="mask-type:luminance" maskUnits="userSpaceOnUse" x="8" y="47" width="45" height="15">
<path fill-rule="evenodd" clip-rule="evenodd" d="M52.797 52.701C52.221 51.317 52.292 49.938 48.171 47.871C47.9428 47.717 47.6936 47.5968 47.431 47.514C46.943 47.398 46.071 47.228 45.639 47.142C44.472 54.275 26.352 64.005 16.683 47.095C15.643 47.339 13.464 47.847 12.882 48.002C8.789 49.821 9.257 50.928 8.717 52.408C11.5732 55.3545 14.9878 57.7025 18.7614 59.3148C22.535 60.9272 26.592 61.7717 30.6956 61.799C34.7991 61.8262 38.867 61.0358 42.6617 59.4737C46.4564 57.9116 49.9019 55.6093 52.797 52.701Z" fill="white"/>
</mask>
<g mask="url(#mask0_4_281)">
<path d="M15.124 52.405C15.9861 52.405 16.685 51.7061 16.685 50.844C16.685 49.9819 15.9861 49.283 15.124 49.283C14.2619 49.283 13.563 49.9819 13.563 50.844C13.563 51.7061 14.2619 52.405 15.124 52.405Z" fill="white"/>
<path d="M16.675 58.641C17.5371 58.641 18.236 57.9421 18.236 57.08C18.236 56.2179 17.5371 55.519 16.675 55.519C15.8129 55.519 15.114 56.2179 15.114 57.08C15.114 57.9421 15.8129 58.641 16.675 58.641Z" fill="white"/>
<path d="M24.052 58.958C24.9141 58.958 25.613 58.2591 25.613 57.397C25.613 56.5349 24.9141 55.836 24.052 55.836C23.1899 55.836 22.491 56.5349 22.491 57.397C22.491 58.2591 23.1899 58.958 24.052 58.958Z" fill="white"/>
<path d="M31.826 62.571C32.6881 62.571 33.387 61.8721 33.387 61.01C33.387 60.1479 32.6881 59.449 31.826 59.449C30.9639 59.449 30.265 60.1479 30.265 61.01C30.265 61.8721 30.9639 62.571 31.826 62.571Z" fill="white"/>
<path d="M39.636 58.465C40.4981 58.465 41.197 57.7661 41.197 56.904C41.197 56.0419 40.4981 55.343 39.636 55.343C38.7739 55.343 38.075 56.0419 38.075 56.904C38.075 57.7661 38.7739 58.465 39.636 58.465Z" fill="white"/>
<path d="M47.05 58.626C47.9121 58.626 48.611 57.9271 48.611 57.065C48.611 56.2029 47.9121 55.504 47.05 55.504C46.1879 55.504 45.489 56.2029 45.489 57.065C45.489 57.9271 46.1879 58.626 47.05 58.626Z" fill="white"/>
<path d="M47.575 52.116C48.4371 52.116 49.136 51.4171 49.136 50.555C49.136 49.6929 48.4371 48.994 47.575 48.994C46.7129 48.994 46.014 49.6929 46.014 50.555C46.014 51.4171 46.7129 52.116 47.575 52.116Z" fill="white"/>
</g>
<path fill-rule="evenodd" clip-rule="evenodd" d="M45.238 36.967C46.6012 37.4796 48.1007 37.4993 49.4768 37.0226C50.8529 36.546 52.019 35.603 52.773 34.357L56.473 36.11C56.473 36.11 53.863 42.247 48.155 40.95C46.029 40.467 44.684 39.9 43.456 39.668C39.458 38.913 38.066 42.724 42.451 43.779C44.866 44.359 48.006 43.737 48.769 42.301C50.129 44.127 47.886 47.266 45.884 47.191C40.389 46.983 37.628 44.604 37.662 41.501C37.697 38.267 40.075 35.286 45.238 36.967Z" fill="#E9573E"/>
<path fill-rule="evenodd" clip-rule="evenodd" d="M24.258 39.172C24.0388 39.5387 23.972 39.9767 24.072 40.392C24.1654 41.5976 24.0123 42.8095 23.622 43.954C21.164 48.1 34.589 55.076 39.867 45.524C40.557 44.49 37.539 43.541 38.509 40.354C38.5657 40.2174 38.5876 40.069 38.5729 39.9218C38.5582 39.7747 38.5072 39.6335 38.4246 39.5109C38.342 39.3883 38.2303 39.288 38.0995 39.2191C37.9687 39.1502 37.8228 39.1148 37.675 39.116C37.675 39.116 32.331 43.597 24.258 39.172Z" fill="#E9573E"/>
<mask id="mask1_4_281" style="mask-type:luminance" maskUnits="userSpaceOnUse" x="23" y="39" width="17" height="12">
<path fill-rule="evenodd" clip-rule="evenodd" d="M24.258 39.172C24.0388 39.5387 23.972 39.9767 24.072 40.392C24.1654 41.5976 24.0123 42.8095 23.622 43.954C21.164 48.1 34.589 55.076 39.867 45.524C40.557 44.49 37.539 43.541 38.509 40.354C38.5657 40.2174 38.5876 40.069 38.5729 39.9218C38.5582 39.7747 38.5072 39.6335 38.4246 39.5109C38.342 39.3883 38.2303 39.288 38.0995 39.2191C37.9687 39.1502 37.8228 39.1148 37.675 39.116C37.675 39.116 32.331 43.597 24.258 39.172Z" fill="white"/>
</mask>
<g mask="url(#mask1_4_281)">
<path opacity="0.11" fill-rule="evenodd" clip-rule="evenodd" d="M37.677 38.778L39.368 39.629C39.408 40.499 39.457 44.229 40.07 45.166C38.263 49.316 25.935 48.574 24.196 38.616L37.677 38.778Z" fill="black"/>
</g>
<path fill-rule="evenodd" clip-rule="evenodd" d="M19.11 24.183C16.152 25.473 18.668 31.593 20.53 31.566C19.7574 29.1721 19.2805 26.6927 19.11 24.183ZM43.507 24.182C46.467 25.474 43.95 31.593 42.088 31.566C42.8605 29.1718 43.3371 26.692 43.507 24.182Z" fill="#F9DCA4"/>
<path fill-rule="evenodd" clip-rule="evenodd" d="M31.114 8.66602C39.836 8.66602 43.491 14.866 43.715 22.033C44.022 31.843 38.04 43.463 31.115 43.463C24.555 43.463 18.409 31.445 18.782 21.535C19.042 14.582 22.596 8.66602 31.114 8.66602Z" fill="#FFE8BE"/>
<path fill-rule="evenodd" clip-rule="evenodd" d="M38.361 16.587C38.187 17.315 35.187 22.86 30.677 24.724C31.433 23.407 32.647 21.832 32.735 20.324C30.573 23.497 21.752 26.661 16.535 25.114C15.364 5.78999 30.182 6.25599 31.183 6.30999C32.185 6.25599 47.04 5.96999 45.869 25.292C40.034 24.202 38.039 19.749 38.361 16.587Z" fill="#ECBE6A"/>
<path fill-rule="evenodd" clip-rule="evenodd" d="M16.754 19.778C18.025 1.29299 44.682 2.00599 45.634 19.778C41.238 7.39999 20.509 7.59099 16.754 19.778Z" fill="#E9573E"/>
<path fill-rule="evenodd" clip-rule="evenodd" d="M43.66 24.657C43.66 24.657 41.371 35.363 34.021 39.487C57.549 33.251 49.908 7.177 40.618 7.163C37.735 -0.699996 16.168 1.46301 13.168 16.613C10.168 31.763 23.091 38.376 24.115 38.985C22.5338 36.6817 21.2613 34.181 20.33 31.547C19.3035 30.9226 18.539 29.9463 18.179 28.8C17.8109 27.7008 17.7378 26.5243 17.967 25.388C17.241 25.257 16.683 25.113 16.683 25.113C16.5489 23.4424 16.569 21.7629 16.743 20.096C17.133 16.202 18.532 11 23.573 8.149C27.096 6.157 34.692 5.599 39.265 8.477C44.627 11.851 46.086 19.167 45.717 25.104L43.66 24.657Z" fill="#D6A956"/>
</g>
<defs>
<clipPath id="clip0_4_281">
<rect width="61.8" height="62.571" fill="white"/>
</clipPath>
</defs>
</svg>
