<svg width="62" height="62" viewBox="0 0 62 62" fill="none" xmlns="http://www.w3.org/2000/svg">
<g clip-path="url(#clip0_4_448)">
<path d="M30.9 61.8C47.9656 61.8 61.8 47.9656 61.8 30.9C61.8 13.8344 47.9656 0 30.9 0C13.8344 0 0 13.8344 0 30.9C0 47.9656 13.8344 61.8 30.9 61.8Z" fill="#9F82BB"/>
<path fill-rule="evenodd" clip-rule="evenodd" d="M52.594 52.918C46.7625 58.6654 38.8881 61.8629 30.7006 61.8082C22.5131 61.7534 14.6821 58.4509 8.928 52.626C9.66366 50.5911 11.0926 48.8803 12.964 47.794C14.2256 46.8617 15.5935 46.0826 17.039 45.473C14.842 37.92 20.817 34.206 23.102 33.138C23.102 36.625 26.368 34.311 30.42 34.355C33.756 34.391 40.352 37.75 40.352 33.32C44.022 34.406 48.022 41.399 45.269 45.696C46.3981 46.2479 47.4648 46.9191 48.451 47.698C50.3779 48.9246 51.8369 50.7629 52.594 52.918Z" fill="#4C4A4F"/>
<path fill-rule="evenodd" clip-rule="evenodd" d="M23.476 38.689L39.165 38.779V42.217L39.157 42.27C39.0857 42.8996 38.9513 43.5203 38.756 44.123C37.606 47.911 34.47 49.715 30.794 51.544C27.902 50.046 23.814 47.347 23.489 42.573L23.476 42.513V42.313C23.4733 42.2444 23.4716 42.1757 23.471 42.107C23.471 42.142 23.474 42.177 23.476 42.212V38.689Z" fill="#302E33"/>
<path opacity="0.22" fill-rule="evenodd" clip-rule="evenodd" d="M39.161 38.66V42.24C39.149 42.5205 39.1061 42.7989 39.033 43.07C38.8971 43.6867 38.7153 44.2924 38.489 44.882C37.1878 45.8418 35.6635 46.4542 34.06 46.6615C32.4564 46.8688 30.8265 46.664 29.324 46.0666C27.8216 45.4692 26.4961 44.4988 25.4727 43.247C24.4493 41.9952 23.7618 40.5032 23.475 38.912L39.161 38.66Z" fill="black"/>
<path fill-rule="evenodd" clip-rule="evenodd" d="M31.129 8.43201C52.41 8.43201 44.116 43.698 31.129 43.698C18.863 43.698 9.848 8.43201 31.129 8.43201ZM19.797 49.172C19.827 49.21 30.216 62.655 42.427 48.971C40.952 53.024 34.591 56.241 30.951 56.231C24.002 56.211 20.155 50.632 19.797 49.172Z" fill="#302E33"/>
<path fill-rule="evenodd" clip-rule="evenodd" d="M18.365 24.046C15.295 25.385 17.905 31.732 19.837 31.704C19.0356 29.2206 18.5413 26.6495 18.365 24.046ZM44.14 24.045C47.21 25.384 44.6 31.732 42.669 31.703C43.4698 29.2198 43.9638 26.6481 44.14 24.045Z" fill="#302E33"/>
<path fill-rule="evenodd" clip-rule="evenodd" d="M31.506 30.646C31.38 30.773 31.716 30.786 31.093 30.768L30.023 30.133C30.184 29.472 30.866 29.153 31.006 28.479L30.158 27.722C30.871 26.692 31.38 27.268 30.829 25.422C30.003 22.656 32.162 22.13 29.996 17.698C29.2949 16.1682 28.7974 14.5531 28.516 12.894C27.609 8.634 29.211 9.081 29.896 8.474C28.531 8.54908 27.1854 8.83096 25.905 9.31C24.829 9.69694 23.8264 10.2636 22.94 10.986C22.913 11.528 23.842 11.339 24.202 11.055L26.983 9.619C26.382 11.012 26 11.509 26.763 13.124C27.435 14.547 26.54 15.452 25.606 16.047C23.326 17.497 19.266 16.925 23.118 20.007C23.4469 19.4325 23.8933 18.9339 24.428 18.5436C24.9626 18.1533 25.5736 17.8802 26.221 17.742C26.5629 17.7347 26.9025 17.7991 27.218 17.9309C27.5335 18.0628 27.8178 18.2592 28.0529 18.5076C28.2879 18.756 28.4683 19.0508 28.5825 19.3731C28.6967 19.6954 28.7422 20.0381 28.716 20.379C28.5092 21.4008 28.5927 22.4602 28.957 23.437L29.434 24.104C29.0511 24.3403 28.6813 24.597 28.326 24.873C28.628 25.167 29.078 25.292 29.331 25.578C29.911 26.233 29.611 27.748 27.891 28.672C26.385 29.48 24.015 29.932 23.549 31.338C23.876 31.601 24.059 31.632 24.368 31.868C24.72 32.138 24.781 32.328 25.143 32.562C25.56 32.184 27.047 30.169 28.549 30.177C28.701 30.939 27.068 31.499 26.167 33.061C25.907 33.512 25.794 33.879 25.409 34.094C24.889 33.834 24.365 32.44 23.15 31.89C22.529 32.454 22.6 32.549 23.058 33.17C23.687 34.023 25.478 36.721 25.94 37.112C26.995 35.92 26.121 36.452 27.933 34.989C28.688 35.379 29.233 36.549 30.703 36.717V36.868C33.758 36.551 33.322 35.728 34.575 34.996C36.202 36.321 35.604 36.069 36.568 37.125C37.5905 35.8903 38.5398 34.5967 39.411 33.251C39.565 33.032 39.835 32.772 39.836 32.55L39.358 31.842C39.328 31.858 39.283 31.854 39.268 31.892C39.255 31.93 39.2 31.932 39.181 31.943L38.121 32.839C37.8143 33.2758 37.4725 33.6868 37.099 34.068C36.491 33.708 36.543 33.002 35.581 32.046C35.241 31.708 34.986 31.451 34.647 31.169C34.329 30.904 33.913 30.729 33.963 30.186C35.448 30.183 36.926 32.263 37.365 32.604L38.965 31.338C38.532 29.368 33.778 29.376 33.051 26.998C32.606 25.538 33.519 25.384 33.921 25.101C34.157 24.934 34.05 25.019 34.181 24.873C33.906 24.594 33.518 24.366 33.208 24.106C33.45 23.166 33.954 24.006 33.853 21.146C33.793 19.442 33.412 19.471 34.64 18.46C35.507 17.748 35.983 17.422 37.44 18.13C38.413 18.601 38.616 19.242 39.358 19.965C40.061 19.693 41.853 18.089 40.478 17.374C39.857 17.051 38.015 16.797 36.836 15.994C35.721 15.236 35.181 14.267 35.843 12.984C36.099 12.4374 36.199 11.8308 36.132 11.231C36.0649 10.6311 35.8334 10.0615 35.463 9.585C36.0017 9.80289 36.5211 10.0655 37.016 10.37C37.27 10.507 39.886 12.27 39.525 11.13C38.6496 10.4077 37.6754 9.81438 36.632 9.368C35.3772 8.92594 34.0739 8.63587 32.75 8.504C33.199 8.807 34.137 9.058 34.219 10.401C34.1079 12.9765 33.5001 15.5062 32.429 17.851C30.316 22.201 32.499 22.221 31.602 25.595C31.205 27.09 31.638 26.877 32.325 27.722C32.047 28.129 31.788 28.19 31.497 28.489C31.642 29.201 32.31 29.502 32.455 30.133C32.1897 30.3858 31.8617 30.5632 31.505 30.647L31.506 30.646ZM22.048 31.726C21.1969 30.9688 20.459 30.0932 19.857 29.126C19.353 28.206 19.185 25.939 19.851 25.306C20.716 26.242 21.049 27.616 22.083 28.384C23.332 29.314 23.522 29.962 22.048 31.726ZM40.421 31.729C38.809 29.471 39.267 29.344 40.431 28.386C41.508 27.5 41.786 26.141 42.431 25.549C42.717 25.287 42.494 25.429 42.811 25.324C44.231 28.206 41.038 31.569 40.421 31.729ZM30.995 41.2L30.7 42.41C29.733 41.355 30.618 40.805 30.678 40C30.744 39.12 29.745 38.096 31.05 37.706L31.294 37.659C32.716 37.859 31.809 39.089 31.808 39.877C31.807 40.999 32.618 40.661 31.921 42.31L31.519 41.107L31.181 41.021L30.995 41.2ZM30.244 37.239C31.04 37.259 33.414 37.119 33.794 37.466C34.554 38.156 33.561 39.371 33.54 40.104C33.508 41.167 34.478 41.588 34.134 42.684C33.679 43.687 32.564 43.471 31.17 43.582C30.858 43.602 30.502 43.62 30.19 43.627C27.1 43.424 29.037 41.098 28.972 40.102C28.955 39.414 28.457 38.975 28.462 38.24C28.47 37.186 29.08 37.238 30.244 37.239ZM28.338 23.556C28.3151 23.7336 28.2485 23.9028 28.1444 24.0485C28.0402 24.1942 27.9016 24.3118 27.741 24.391C26.803 24.914 24.944 23.615 24.349 23.226C22.186 21.811 21.714 24.774 21.025 25.485C19.843 24.806 20.422 23.392 20.182 22.039C20.003 21.026 19.357 20.151 19.177 18.849C18.824 16.309 20.237 14.021 21.374 12.572L21.664 12.859C21.053 13.555 18.652 16.237 20.456 17.343C21.987 18.282 20.426 19.851 21.561 20.813C21.944 21.139 21.914 21.044 22.579 21.109C23.547 21.204 23.653 21.322 24.959 19.899C25.409 19.409 25.532 18.864 26.073 18.653C26.798 19.046 26.891 20.303 26.963 21.148C27.091 22.619 26.726 22.656 27.738 23.061C28.313 23.291 28.124 23.186 28.338 23.556ZM41.764 14.226C41.181 13.436 40.305 13.306 41.056 12.688C42.299 14.222 43.648 16.332 43.323 18.932C43.148 20.337 42.498 21.022 42.326 22.168C42.089 23.748 42.753 24.556 41.484 25.514C40.88 24.928 40.334 21.834 38.093 23.279C33.887 25.992 34.178 23.375 34.203 23.34C34.539 23.11 35.181 22.954 35.364 22.68C35.741 22.122 35.183 19.26 36.435 18.638C36.968 18.839 37.971 20.621 38.833 21.033C39.1777 21.1431 39.542 21.1785 39.9014 21.137C40.2609 21.0954 40.6075 20.9778 40.918 20.792C42.095 19.776 40.496 18.241 42.038 17.32C43.218 16.615 42.401 15.091 41.764 14.227V14.226ZM31.257 32.45L31.426 32.439C32.091 32.171 32.294 31.671 32.981 31.296C33.4317 31.2944 33.8714 31.4355 34.2371 31.699C34.6029 31.9625 34.8758 32.3349 35.017 32.763C34.924 33.202 32.873 34.278 31.731 35.239C31.333 35.575 31.665 35.485 31.121 35.519C30.6805 35.1365 30.2184 34.7796 29.737 34.45C28.405 33.636 26.861 33.005 27.792 32.103C28.2593 31.6327 28.8696 31.3309 29.527 31.245C30.08 31.641 30.637 32.34 31.257 32.45Z" fill="#ED4B39"/>
<path fill-rule="evenodd" clip-rule="evenodd" d="M33.047 11.743C33.0503 11.7876 33.052 11.8333 33.052 11.88C33.052 12.3574 32.8624 12.8152 32.5248 13.1528C32.1872 13.4903 31.7294 13.68 31.252 13.68C30.7746 13.68 30.3168 13.4903 29.9792 13.1528C29.6416 12.8152 29.452 12.3574 29.452 11.88C29.452 11.8333 29.4537 11.7876 29.457 11.743H29.452C29.697 9.50297 30.692 7.81097 31.312 5.84497C31.892 7.81097 32.772 9.36497 33.052 11.743H33.047ZM41.113 12.395C41.106 12.4345 41.098 12.4738 41.089 12.513C41.0401 12.7156 40.9519 12.9066 40.8292 13.0751C40.7065 13.2436 40.5518 13.3863 40.374 13.4951C40.1962 13.6038 39.9987 13.6765 39.7928 13.7089C39.5869 13.7413 39.3766 13.7328 39.174 13.684C38.9714 13.6351 38.7803 13.5468 38.6118 13.4242C38.4433 13.3015 38.3006 13.1468 38.1919 12.969C38.0832 12.7912 38.0105 12.5937 37.9781 12.3878C37.9457 12.1819 37.9541 11.9716 38.003 11.769C38.0159 11.7309 38.0253 11.6917 38.031 11.652C39.3543 10.3619 40.3234 8.75295 40.845 6.97997C41.5579 8.69983 41.654 10.6133 41.117 12.396L41.113 12.395ZM21.326 12.404C21.332 12.444 21.34 12.484 21.35 12.523C21.4488 12.9322 21.7061 13.2854 22.0653 13.5049C22.2432 13.6136 22.4407 13.6862 22.6467 13.7186C22.8526 13.7509 23.0629 13.7424 23.2655 13.6935C23.4681 13.6446 23.6591 13.5562 23.8276 13.4335C23.9961 13.3107 24.1388 13.156 24.2475 12.9781C24.3562 12.8003 24.4287 12.6027 24.4611 12.3968C24.4934 12.1909 24.4849 11.9806 24.436 11.778C24.4227 11.74 24.413 11.7008 24.407 11.661C23.0841 10.3707 22.1154 8.76183 21.594 6.98897C20.8807 8.70871 20.7843 10.6222 21.321 12.405L21.326 12.404Z" fill="#E6E6E6"/>
</g>
<defs>
<clipPath id="clip0_4_448">
<rect width="61.8" height="61.809" fill="white"/>
</clipPath>
</defs>
</svg>
